<?xml version="1.0" encoding="iso-8859-1"?>
<!-- Generator: Adobe Illustrator 18.0.0, SVG Export Plug-In . SVG Version: 6.00 Build 0)  -->
<!DOCTYPE svg PUBLIC "-//W3C//DTD SVG 1.1//EN" "http://www.w3.org/Graphics/SVG/1.1/DTD/svg11.dtd">
<svg version="1.1" id="Capa_1" xmlns="http://www.w3.org/2000/svg" xmlns:xlink="http://www.w3.org/1999/xlink" x="0px" y="0px"
	 viewBox="0 0 297 297" style="enable-background:new 0 0 297 297;" xml:space="preserve">
<g>
	<g>
		<g>
			<path style="fill:#9ADAD9;" d="M296.151,121.978l-26.84,120.782c-3.489,15.7-17.414,26.87-33.496,26.87H45.384
				c-16.356,0-30.439-11.545-33.647-27.584L0.849,187.601"/>
		</g>
	</g>
	<g style="opacity:0.6;">
		<path style="fill:#BDC3C7;" d="M256.777,130.728l-20.278,91.25c-3.489,15.7-17.414,26.87-33.496,26.87H13.855
			c5.316,12.399,17.595,20.782,31.529,20.782h190.431c16.082,0,30.007-11.17,33.496-26.87l26.84-120.782L256.777,130.728z"/>
	</g>
	<g>
		<g>
			<path style="fill:#82D9C8;" d="M293.157,127.047c-18.896,14.425-108.177,74.699-283.283,76.898C4.44,204.013,0,199.609,0,194.175
				v-24.876c0-5.352,4.313-9.694,9.665-9.764c151.692-1.977,239.022-50.155,272.016-72.992C288.159,82.059,297,86.699,297,94.578
				v24.702C297,122.329,295.581,125.196,293.157,127.047z"/>
		</g>
	</g>
	<g style="opacity:0.6;">
		<path style="fill:#BDC3C7;" d="M296.151,90.554v12.321c0,3.049-1.419,5.916-3.843,7.766
			c-18.896,14.425-108.177,74.699-283.283,76.898c-4.019,0.05-7.488-2.348-9.025-5.797v12.433c0,5.434,4.44,9.838,9.874,9.77
			c175.107-2.199,264.387-62.473,283.283-76.898c2.424-1.85,3.843-4.717,3.843-7.766V94.578
			C297,93.112,296.692,91.758,296.151,90.554z"/>
	</g>
	<g>
		<path style="fill:#82D9C8;" d="M58.269,294.238L58.269,294.238c-4.53,0-8.203-3.673-8.203-8.203v-16.406h16.406v16.406
			C66.471,290.565,62.799,294.238,58.269,294.238z"/>
	</g>
	<g>
		<path style="fill:#82D9C8;" d="M222.326,294.238L222.326,294.238c-4.53,0-8.203-3.673-8.203-8.203v-16.406h16.406v16.406
			C230.529,290.565,226.856,294.238,222.326,294.238z"/>
	</g>
	<g>
		<g>
			<circle style="fill:#DFDAD7;" cx="66.471" cy="51.979" r="16.406"/>
		</g>
	</g>
	<g style="opacity:0.33;">
		<path style="fill:#BDC3C7;" d="M66.471,35.573c-0.745,0-1.472,0.067-2.191,0.163c5.886,0.92,10.394,5.997,10.394,12.141
			c0,6.795-5.509,12.304-12.304,12.304c-6.144,0-11.221-4.508-12.141-10.394c-0.096,0.719-0.163,1.446-0.163,2.191
			c0,9.061,7.345,16.406,16.406,16.406s16.406-7.345,16.406-16.406C82.877,42.918,75.532,35.573,66.471,35.573z"/>
	</g>
	<g>
		<g>
			<circle style="fill:#DFDAD7;" cx="82.877" cy="117.602" r="16.406"/>
		</g>
	</g>
	<g style="opacity:0.33;">
		<path style="fill:#BDC3C7;" d="M82.877,101.196c-0.745,0-1.472,0.067-2.191,0.163c5.886,0.92,10.394,5.997,10.394,12.141
			c0,6.795-5.509,12.304-12.304,12.304c-6.144,0-11.221-4.508-12.141-10.394c-0.096,0.719-0.163,1.446-0.163,2.191
			c0,9.061,7.345,16.406,16.406,16.406s16.406-7.345,16.406-16.406C99.283,108.541,91.938,101.196,82.877,101.196z"/>
	</g>
	<g>
		<g>
			<circle style="fill:#DFDAD7;" cx="214.123" cy="19.168" r="16.406"/>
		</g>
	</g>
	<g style="opacity:0.33;">
		<path style="fill:#BDC3C7;" d="M214.123,2.762c-0.745,0-1.472,0.067-2.191,0.163c5.886,0.92,10.394,5.997,10.394,12.141
			c0,6.795-5.509,12.304-12.304,12.304c-6.144,0-11.221-4.508-12.141-10.394c-0.096,0.719-0.163,1.446-0.163,2.191
			c0,9.061,7.345,16.406,16.406,16.406c9.061,0,16.406-7.345,16.406-16.406C230.529,10.107,223.183,2.762,214.123,2.762z"/>
	</g>
	<g>
		<g>
			<circle style="fill:#DFDAD7;" cx="123.891" cy="76.588" r="24.609"/>
		</g>
	</g>
	<g style="opacity:0.33;">
		<path style="fill:#BDC3C7;" d="M123.891,51.979c-0.723,0-1.437,0.038-2.145,0.099c10.407,0.986,18.55,9.743,18.55,20.408
			c0,11.326-9.181,20.507-20.507,20.507c-10.665,0-19.422-8.143-20.408-18.55c-0.061,0.707-0.099,1.422-0.099,2.145
			c0,13.591,11.018,24.609,24.609,24.609S148.5,90.179,148.5,76.588C148.5,62.997,137.482,51.979,123.891,51.979z"/>
	</g>
</g>
<g>
</g>
<g>
</g>
<g>
</g>
<g>
</g>
<g>
</g>
<g>
</g>
<g>
</g>
<g>
</g>
<g>
</g>
<g>
</g>
<g>
</g>
<g>
</g>
<g>
</g>
<g>
</g>
<g>
</g>
</svg>
