<?xml version="1.0" encoding="iso-8859-1"?>
<!-- Generator: Adobe Illustrator 19.0.0, SVG Export Plug-In . SVG Version: 6.00 Build 0)  -->
<svg version="1.1" id="Capa_1" xmlns="http://www.w3.org/2000/svg" xmlns:xlink="http://www.w3.org/1999/xlink" x="0px" y="0px"
	 viewBox="0 0 176.987 176.987" style="enable-background:new 0 0 176.987 176.987;" xml:space="preserve">
<g>
	<g>
		<g>
			<path style="fill:#AC5918;" d="M86.993,77.377c-16.932,0.757-33.739,11.889-33.662,32.39l0.153,22.713
				c0.08,21.309,16.573,31.488,33.509,31.48V77.377z"/>
			<path style="fill:#774730;" d="M86.993,77.377c16.938,0.629,33.434,11.635,33.511,32.136l0.152,22.712
				c0.081,21.31-16.727,31.614-33.663,31.735V77.377z"/>
		</g>
	</g>
	<g>
		<path style="fill:#D5742A;" d="M86.992,97.389c-13.609,0.827-24.428,14.013-24.428,30.157c0,16.145,10.818,29.332,24.428,30.158
			V97.389z"/>
		<path style="fill:#AC5918;" d="M86.994,97.389c13.609,0.827,24.428,14.013,24.428,30.157c0,16.145-10.818,29.332-24.428,30.158
			V97.389z"/>
	</g>
	<g>
		<g>
			<path style="fill:#E0874B;" d="M51.96,84.247c-10.273,0.487-18.315,8.263-18.315,17.783c0,9.52,8.042,17.297,18.315,17.783
				V84.247z"/>
			<path style="fill:#D5742A;" d="M51.96,84.247c10.272,0.487,18.564,8.263,18.564,17.783c0,9.52-8.292,17.297-18.564,17.783V84.247
				z"/>
		</g>
		<g>
			<path style="fill:#E0874B;" d="M121.779,84.247c-10.273,0.487-18.314,8.263-18.314,17.783c0,9.52,8.041,17.297,18.314,17.783
				V84.247z"/>
			<path style="fill:#D5742A;" d="M121.779,84.247c10.271,0.487,18.564,8.263,18.564,17.783c0,9.52-8.293,17.297-18.564,17.783
				V84.247z"/>
		</g>
		<g>
			<g>
				<path style="fill:#42403F;" d="M61.652,106.706c0,5.285-4.408,9.568-9.692,9.568c-5.285,0-9.443-4.283-9.443-9.568
					c0-5.284,4.158-9.567,9.443-9.567C57.244,97.139,61.652,101.422,61.652,106.706z"/>
				<path style="fill:#42403F;" d="M56.338,91.468c0,2.349-2.029,4.252-4.378,4.252c-2.349,0-4.128-1.903-4.128-4.252
					c0-2.349,1.779-4.253,4.128-4.253C54.309,87.215,56.338,89.119,56.338,91.468z"/>
				<g>
					<circle style="fill:#42403F;" cx="41.454" cy="94.302" r="4.252"/>
					<circle style="fill:#42403F;" cx="62.716" cy="94.302" r="4.253"/>
				</g>
			</g>
			<g>
				<path style="fill:#232221;" d="M51.96,97.139c-0.169,0,0.167,0.017,0,0.025v19.085c0.167,0.009-0.169,0.025,0,0.025
					c5.284,0,9.692-4.283,9.692-9.568C61.652,101.422,57.244,97.139,51.96,97.139z"/>
				<path style="fill:#232221;" d="M51.96,87.215c-0.171,0,0.166,0.03,0,0.051v8.403c0.166,0.021-0.171,0.051,0,0.051
					c2.349,0,4.378-1.903,4.378-4.252C56.338,89.119,54.309,87.215,51.96,87.215z"/>
				<g>
					<circle style="fill:#232221;" cx="62.716" cy="94.302" r="4.253"/>
				</g>
			</g>
		</g>
		<g>
			<g>
				<path style="fill:#42403F;" d="M131.473,106.706c0,5.285-4.409,9.568-9.693,9.568c-5.285,0-9.443-4.283-9.443-9.568
					c0-5.284,4.158-9.567,9.443-9.567C127.063,97.139,131.473,101.422,131.473,106.706z"/>
				<path style="fill:#42403F;" d="M126.156,91.468c0,2.349-2.029,4.252-4.377,4.252c-2.35,0-4.129-1.903-4.129-4.252
					c0-2.349,1.779-4.253,4.129-4.253C124.127,87.215,126.156,89.119,126.156,91.468z"/>
				<g>
					<circle style="fill:#42403F;" cx="111.272" cy="94.302" r="4.253"/>
					<circle style="fill:#42403F;" cx="132.535" cy="94.302" r="4.252"/>
				</g>
			</g>
			<g>
				<path style="fill:#232221;" d="M121.779,97.139c-0.17,0,0.166,0.017,0,0.025v19.085c0.166,0.009-0.17,0.025,0,0.025
					c5.284,0,9.693-4.283,9.693-9.568C131.473,101.422,127.063,97.139,121.779,97.139z"/>
				<path style="fill:#232221;" d="M121.779,87.215c-0.172,0,0.166,0.03,0,0.051v8.403c0.166,0.021-0.172,0.051,0,0.051
					c2.348,0,4.377-1.903,4.377-4.252C126.156,89.119,124.127,87.215,121.779,87.215z"/>
				<g>
					<circle style="fill:#232221;" cx="132.535" cy="94.302" r="4.252"/>
				</g>
			</g>
		</g>
	</g>
	<g>
		<g>
			<polygon style="fill:#AC5918;" points="35.406,176.987 88.646,163.96 55.41,139.653 35.406,141.421 			"/>
			<g>
				<path style="fill:#E0874B;" d="M35.406,141.421c-10.273,0.487-18.853,8.263-18.853,17.783c0,9.52,8.58,17.296,18.853,17.783
					V141.421z"/>
				<path style="fill:#D5742A;" d="M35.406,141.421c10.272,0.487,18.027,8.263,18.027,17.783c0,9.52-7.755,17.296-18.027,17.783
					V141.421z"/>
			</g>
			<g>
				<g>
					<path style="fill:#42403F;" d="M45.348,163.706c0,5.285-4.656,9.568-9.941,9.568c-5.285,0-9.195-4.283-9.195-9.568
						c0-5.284,3.91-9.567,9.195-9.567C40.691,154.139,45.348,158.422,45.348,163.706z"/>
					<path style="fill:#42403F;" d="M40.031,148.468c0,2.349-2.276,4.252-4.625,4.252c-2.35,0-3.88-1.903-3.88-4.252
						c0-2.349,1.53-4.253,3.88-4.253C37.755,144.215,40.031,146.119,40.031,148.468z"/>
					<g>
						<circle style="fill:#42403F;" cx="25.147" cy="151.302" r="4.253"/>
						<circle style="fill:#42403F;" cx="46.41" cy="151.302" r="4.252"/>
					</g>
				</g>
				<g>
					<path style="fill:#232221;" d="M35.406,154.139c-0.169,0,0.166,0.017,0,0.025v19.085c0.166,0.009-0.169,0.025,0,0.025
						c5.285,0,9.941-4.283,9.941-9.568C45.348,158.422,40.691,154.139,35.406,154.139z"/>
					<path style="fill:#232221;" d="M35.406,144.215c-0.172,0,0.166,0.03,0,0.051v8.403c0.166,0.02-0.172,0.051,0,0.051
						c2.349,0,4.625-1.903,4.625-4.252C40.031,146.119,37.755,144.215,35.406,144.215z"/>
					<g>
						<circle style="fill:#232221;" cx="46.41" cy="151.302" r="4.252"/>
					</g>
				</g>
			</g>
		</g>
		<g>
			<polygon style="fill:#774730;" points="139.68,176.987 86.026,163.96 119.262,139.653 139.68,141.421 			"/>
			<g>
				<path style="fill:#E0874B;" d="M141.869,141.421c-10.273,0.487-18.315,8.263-18.315,17.783c0,9.52,8.042,17.296,18.315,17.783
					V141.421z"/>
				<path style="fill:#D5742A;" d="M141.869,141.421c10.273,0.487,18.564,8.263,18.564,17.783c0,9.52-8.291,17.296-18.564,17.783
					V141.421z"/>
			</g>
			<g>
				<g>
					<path style="fill:#42403F;" d="M151.563,164.206c0,5.285-4.408,9.568-9.693,9.568s-9.443-4.283-9.443-9.568
						c0-5.284,4.158-9.567,9.443-9.567S151.563,158.922,151.563,164.206z"/>
					<path style="fill:#42403F;" d="M146.246,148.968c0,2.349-2.029,4.252-4.377,4.252c-2.35,0-4.129-1.903-4.129-4.252
						c0-2.349,1.779-4.253,4.129-4.253C144.217,144.715,146.246,146.619,146.246,148.968z"/>
					<g>
						<circle style="fill:#42403F;" cx="131.362" cy="151.802" r="4.253"/>
						<circle style="fill:#42403F;" cx="152.625" cy="151.802" r="4.252"/>
					</g>
				</g>
				<g>
					<path style="fill:#232221;" d="M141.869,154.639c-0.17,0,0.166,0.017,0,0.025v19.085c0.166,0.009-0.17,0.025,0,0.025
						c5.285,0,9.693-4.283,9.693-9.568C151.563,158.922,147.154,154.639,141.869,154.639z"/>
					<path style="fill:#232221;" d="M141.869,144.715c-0.172,0,0.166,0.03,0,0.051v8.403c0.166,0.02-0.172,0.051,0,0.051
						c2.348,0,4.377-1.903,4.377-4.252C146.246,146.619,144.217,144.715,141.869,144.715z"/>
					<g>
						<circle style="fill:#232221;" cx="152.625" cy="151.802" r="4.252"/>
					</g>
				</g>
			</g>
		</g>
	</g>
	<g>
		<g>
			<circle style="fill:#AC5918;" cx="44.78" cy="20" r="20"/>
			<circle style="fill:#96450F;" cx="131.447" cy="20" r="20"/>
		</g>
		<g>
			<path style="fill:#D5742A;" d="M87.331,4.849C61.85,5.04,41.072,25.038,41.072,49.69s20.778,44.65,46.259,44.842V4.849z"/>
			<path style="fill:#AC5918;" d="M87.331,4.849C112.81,5.04,133.59,25.038,133.59,49.69s-20.779,44.65-46.259,44.842V4.849z"/>
		</g>
		<g>
			<path style="fill:#211A18;" d="M74.327,45.536c0.005,1.967-1.575,3.565-3.532,3.569l0,0c-1.956,0.007-3.547-1.584-3.553-3.55
				l-0.018-6.233c-0.005-1.967,1.578-3.565,3.535-3.572l0,0c1.955-0.004,3.545,1.586,3.551,3.553L74.327,45.536z"/>
			<path style="fill:#211A18;" d="M107.438,45.443c0.006,1.967-1.578,3.566-3.532,3.571l0,0c-1.959,0.006-3.548-1.585-3.556-3.551
				l-0.016-6.232c-0.006-1.968,1.577-3.566,3.533-3.571l0,0c1.957-0.007,3.549,1.583,3.554,3.55L107.438,45.443z"/>
		</g>
		<g>
			<path style="fill:#AC5918;" d="M87.331,51.896c-13.697,0.071-24.866,7.612-24.866,16.905c0,9.295,11.169,16.835,24.866,16.907
				V51.896z"/>
			<path style="fill:#774730;" d="M87.331,51.896c13.697,0.071,24.867,7.612,24.867,16.905c0,9.295-11.17,16.835-24.867,16.907
				V51.896z"/>
		</g>
		<g>
			<path style="fill:#42403F;" d="M86.682,49.175c-6.639,0.241-11.914,4.086-11.914,8.794c0,4.709,5.275,8.555,11.914,8.795V49.175z
				"/>
			<path style="fill:#232221;" d="M86.682,49.175c6.639,0.241,11.916,4.086,11.916,8.794c0,4.709-5.277,8.555-11.916,8.795V49.175z"
				/>
		</g>
	</g>
</g>
<g>
</g>
<g>
</g>
<g>
</g>
<g>
</g>
<g>
</g>
<g>
</g>
<g>
</g>
<g>
</g>
<g>
</g>
<g>
</g>
<g>
</g>
<g>
</g>
<g>
</g>
<g>
</g>
<g>
</g>
</svg>
