<?xml version="1.0" encoding="iso-8859-1"?>
<!-- Generator: Adobe Illustrator 19.0.0, SVG Export Plug-In . SVG Version: 6.00 Build 0)  -->
<svg version="1.1" id="Capa_1" xmlns="http://www.w3.org/2000/svg" xmlns:xlink="http://www.w3.org/1999/xlink" x="0px" y="0px"
	 viewBox="0 0 460 460" style="enable-background:new 0 0 460 460;" xml:space="preserve">
<g id="XMLID_1024_">
	<path id="XMLID_1025_" style="fill:#78B9EB;" d="M50,340h155V0H50C22.5,0,0,22.5,0,50v330h1.013C5.678,357.249,25.922,340,50,340z"
		/>
	<path id="XMLID_1026_" style="fill:#3D9AE2;" d="M460,40V0H205v340H50c-24.078,0-44.322,17.249-48.987,40
		C0.349,383.234,0,386.578,0,390v20c0,27.5,22.5,50,50,50h310v-40H40v-40h420v-40h-50v-45h50v-40h-50v-45h50v-40h-50v-45h50V85h-50
		V40H460z M326,221h40v40h-40V221z M296,340v-39h40v39H296z"/>
	<rect id="XMLID_1030_" x="296" y="301" style="fill:#78B9EB;" width="40" height="39"/>
	<rect id="XMLID_1031_" x="326" y="221" style="fill:#78B9EB;" width="40" height="40"/>
	<rect id="XMLID_1032_" x="40" y="380" style="fill:#78B9EB;" width="320" height="40"/>
</g>
<g>
</g>
<g>
</g>
<g>
</g>
<g>
</g>
<g>
</g>
<g>
</g>
<g>
</g>
<g>
</g>
<g>
</g>
<g>
</g>
<g>
</g>
<g>
</g>
<g>
</g>
<g>
</g>
<g>
</g>
</svg>
