<?xml version="1.0" encoding="iso-8859-1"?>
<!-- Generator: Adobe Illustrator 18.0.0, SVG Export Plug-In . SVG Version: 6.00 Build 0)  -->
<!DOCTYPE svg PUBLIC "-//W3C//DTD SVG 1.1//EN" "http://www.w3.org/Graphics/SVG/1.1/DTD/svg11.dtd">
<svg version="1.1" id="Capa_1" xmlns="http://www.w3.org/2000/svg" xmlns:xlink="http://www.w3.org/1999/xlink" x="0px" y="0px"
	 viewBox="0 0 368.404 368.404" style="enable-background:new 0 0 368.404 368.404;" xml:space="preserve">
<g>
	<path style="fill:#6BC0DD;" d="M360.304,121.154c0,0,0,0,0.01,0.01l-0.01,0.02c-0.35,6.73-1.84,13.45-4.51,19.86
		c-1.17,2.87-2.6,5.68-4.26,8.4c-43.44,71.21-44.95,163.74-43.44,201.63c0.43,10.95,1.12,17.33,1.12,17.33h-16.46
		c0.74-5.77,1.34-11.56,1.81-17.33c4.22-50.91-1.14-100.21-6.33-125.42c-2.82-13.63-20.09-18.24-29.12-7.65
		c-26.07,30.59-43.28,73.65-53.43,105.86c-3.35,10.63-9.31,19.92-17.03,27.21l-0.36,0.33c-11.46,10.67-26.73,17-43.16,17h-95.07
		c-9.17,0-17.85-2.87-25.02-7.89c-3.71-2.6-7.02-5.78-9.78-9.44c-2.57-3.4-4.67-7.22-6.18-11.38c-3.65-10.04,2.36-20.94,12.77-23.36
		c63.74-14.87,70.61-52.19,70.61-52.19l8.79,0.57c37.8,2.46,73.75-16.58,92.97-49.21l104.93-178.17l39.36,33.37
		C353.664,83.544,361.323,102.404,360.304,121.154z"/>
	<circle style="fill:#FFFFFF;" cx="101.737" cy="297.482" r="7.407"/>
	<circle style="fill:#FFFFFF;" cx="75.811" cy="320.444" r="7.407"/>
	<circle style="fill:#FFFFFF;" cx="109.315" cy="327.004" r="7.407"/>
	<circle style="fill:#FFFFFF;" cx="320.342" cy="79.279" r="7.407"/>
	<circle style="fill:#FFFFFF;" cx="335.341" cy="109.278" r="7.407"/>
	<g>
		<path style="fill:#54DAE8;" d="M259.156,74.148c-1.657,0-3-1.343-3-3V3c0-1.657,1.343-3,3-3s3,1.343,3,3v68.148
			C262.156,72.805,260.813,74.148,259.156,74.148z"/>
		<path style="fill:#54DAE8;" d="M293.23,40.074h-68.148c-1.657,0-3-1.343-3-3s1.343-3,3-3h68.148c1.657,0,3,1.343,3,3
			S294.887,40.074,293.23,40.074z"/>
	</g>
	<g>
		<path style="fill:#54DAE8;" d="M77.404,274.148c-1.657,0-3-1.343-3-3V227c0-1.657,1.343-3,3-3s3,1.343,3,3v44.148
			C80.404,272.805,79.06,274.148,77.404,274.148z"/>
		<path style="fill:#54DAE8;" d="M99.478,252.074H55.329c-1.657,0-3-1.343-3-3s1.343-3,3-3h44.148c1.657,0,3,1.343,3,3
			S101.135,252.074,99.478,252.074z"/>
	</g>
	<g>
		<path style="fill:#54DAE8;" d="M239.404,104.111c-1.657,0-3-1.343-3-3V71.037c0-1.657,1.343-3,3-3s3,1.343,3,3v30.074
			C242.404,102.768,241.06,104.111,239.404,104.111z"/>
		<path style="fill:#54DAE8;" d="M254.441,89.074h-30.074c-1.657,0-3-1.343-3-3s1.343-3,3-3h30.074c1.657,0,3,1.343,3,3
			S256.097,89.074,254.441,89.074z"/>
	</g>
	<path style="fill:#509BAD;" d="M360.304,121.154c-6.902,11.313-17.538,27.073-27.774,43.439
		c-12.713,20.325-35.492,31.589-59.445,30.61c-0.481-0.02-0.965-0.03-1.451-0.03c-9.78,0-19.06,4.3-25.46,11.8
		c-15.55,18.25-38.01,52.45-56.7,111.78c-2.4,7.61-6.72,14.51-12.49,19.96c-7.326,6.928-16.551,11.203-26.411,12.36H15.263
		c2.76,3.66,6.07,6.84,9.78,9.44c7.17,5.02,15.85,7.89,25.02,7.89h95.07c16.428,0,31.693-6.334,43.154-17h0.006l0.36-0.33
		c7.72-7.29,13.68-16.58,17.03-27.21c10.15-32.21,27.36-75.27,53.43-105.86c9.03-10.59,26.3-5.98,29.12,7.65
		c5.19,25.21,10.55,74.51,6.33,125.42h13.53c-1.51-37.89,0-130.42,43.44-201.63c1.66-2.72,3.09-5.53,4.26-8.4l4.51-19.86l0.01-0.02
		v-0.02C360.313,121.144,360.313,121.154,360.304,121.154z"/>
	<path style="fill:#38707F;" d="M309.214,368.404h-16.46c0.74-5.77,1.34-11.56,1.81-17.33h13.53
		C308.523,362.024,309.214,368.404,309.214,368.404z"/>
</g>
<g>
</g>
<g>
</g>
<g>
</g>
<g>
</g>
<g>
</g>
<g>
</g>
<g>
</g>
<g>
</g>
<g>
</g>
<g>
</g>
<g>
</g>
<g>
</g>
<g>
</g>
<g>
</g>
<g>
</g>
</svg>
