<?xml version="1.0" encoding="iso-8859-1"?>
<!-- Generator: Adobe Illustrator 19.0.0, SVG Export Plug-In . SVG Version: 6.00 Build 0)  -->
<svg version="1.1" id="Layer_1" xmlns="http://www.w3.org/2000/svg" xmlns:xlink="http://www.w3.org/1999/xlink" x="0px" y="0px"
	 viewBox="0 0 397.33 397.33" style="enable-background:new 0 0 397.33 397.33;" xml:space="preserve">
<g>
	<polygon style="fill:#F93030;" points="229.446,10.667 196.78,21.333 196.78,0 	"/>
	<rect x="196.78" style="fill:#2D4151;" width="4" height="48"/>
	<path style="fill:#F9C032;" d="M377.75,179.41c-11.62,72.23-10.56,145.98,3.17,217.92h-365c13.77-72.14,14.79-146.1,3.07-218.52
		c-0.25-1.6-0.52-3.21-0.79-4.81c-0.67-4.01-1.4-8-2.16-12c-0.04-0.22-0.08-0.45-0.12-0.67c0,0,3.567-1.981,5.586-2.982
		C87.265,125.739,146.514,85.426,198.42,39.7c51.433,45.309,110.075,85.304,175.117,117.754c2.614,1.304,7.383,3.876,7.383,3.876
		c-0.04,0.22-0.08,0.45-0.12,0.67c-0.76,4-1.49,7.99-2.16,12C378.33,175.8,378.04,177.61,377.75,179.41z"/>
	<g>
		<path style="fill:#F93030;" d="M34.97,161.33h0.44c0.03,0.22,0.07,0.45,0.11,0.67c0.67,4,1.33,7.99,1.92,12
			c0.25,1.6,0.49,3.21,0.71,4.81c10.47,72.42,9.56,146.38-2.74,218.52H15.92c13.77-72.14,14.79-146.1,3.07-218.52
			c-0.25-1.6-0.52-3.21-0.79-4.81c-0.67-4.01-1.4-8-2.16-12"/>
		<path style="fill:#F93030;" d="M381.41,161.33h-0.49c-0.04,0.22-0.08,0.45-0.12,0.67c-0.76,4-1.49,7.99-2.16,12
			c-0.31,1.8-0.6,3.61-0.89,5.41c-11.62,72.23-10.56,145.98,3.17,217.92h-19.49c-12.26-71.94-13.21-145.69-2.83-217.92
			c0.26-1.8,0.52-3.61,0.79-5.41c0.6-4.01,1.25-8,1.93-12c0.04-0.22,0.07-0.45,0.11-0.67h0.44"/>
	</g>
	<g>
		<path style="fill:#F93030;" d="M139.16,397.33H88.14c8.51-73.74,8.97-149.38,1.38-223.33c-0.43-4.23-0.89-8.45-1.38-12.67h51.02
			c0.26,4.22,0.51,8.44,0.74,12.67C143.97,247.95,143.73,323.59,139.16,397.33z"/>
		<path style="fill:#F93030;" d="M308.7,397.33h-51.02c-4.57-73.74-4.81-149.38-0.74-223.33c0.23-4.23,0.48-8.45,0.74-12.67h51.02
			c-0.49,4.22-0.95,8.44-1.38,12.67C299.73,247.95,300.19,323.59,308.7,397.33z"/>
	</g>
	<path style="fill:#F93030;" d="M257.766,161.33c-22.116-33.125-41.997-74.505-59.346-121.635
		c-17.349,47.13-37.231,88.51-59.346,121.635H88.576c40.934-33.125,77.732-74.505,109.844-121.635
		c32.111,47.13,68.91,88.51,109.844,121.635H257.766z"/>
	<path style="fill:#CE2E2E;" d="M126.42,397.33V241.271c0-4.938,4.003-8.941,8.941-8.941h126.117c4.938,0,8.941,4.003,8.941,8.941
		V397.33H126.42z"/>
	<rect x="133.42" y="239.33" style="fill:#2D4151;" width="130" height="158"/>
	<path style="fill:#F9C032;" d="M263.42,239.33v139.33c-2.88-0.02-5.72-0.61-8.5-1.68c-22.58-8.69-41.65-49.61-51.5-85.61
		c-2.11-7.71-3.79-15.19-5-22.09c-1.42-8.11-2.17-15.4-2.17-21.28c0-2.94,0.19-5.83,0.55-8.67H263.42z"/>
	<path style="fill:#F9C032;" d="M200.59,248c0,5.88-0.75,13.17-2.17,21.28c-6.84,39.09-29.09,97.15-56.5,107.7
		c-2.78,1.07-5.62,1.66-8.5,1.68V239.33h66.62C200.4,242.17,200.59,245.06,200.59,248z"/>
	<path style="opacity:0.34;fill:#2D4151;enable-background:new    ;" d="M380.8,162c-0.76,4-1.49,7.99-2.16,12
		c-0.31,1.8-0.6,3.61-0.89,5.41c-3.32,4.56-8.7,7.52-14.77,7.52c-10.1,0-18.27-8.17-18.27-18.27c0,10.1-8.18,18.27-18.27,18.27
		s-18.26-8.17-18.26-18.27c0,10.1-8.18,18.27-18.28,18.27c-10.08,0-18.26-8.17-18.26-18.27c0,10.1-8.17,18.27-18.27,18.27
		c-10.08,0-18.26-8.17-18.26-18.27c0,10.1-8.18,18.27-18.27,18.27c-10.08,0-18.27-8.17-18.27-18.27c0,10.1-8.17,18.27-18.26,18.27
		s-18.27-8.17-18.27-18.27c0,10.1-8.17,18.27-18.26,18.27s-18.27-8.17-18.27-18.27c0,10.1-8.17,18.27-18.26,18.27
		s-18.27-8.17-18.27-18.27c0,10.1-8.17,18.27-18.27,18.27c-10.08,0-18.26-8.17-18.26-18.27c0,10.1-8.18,18.27-18.27,18.27
		c-6.33,0-11.91-3.22-15.19-8.12c-0.25-1.6-0.52-3.21-0.79-4.81c-0.67-4.01-1.4-8-2.16-12L380.8,162L380.8,162z"/>
	<g>
		<path style="fill:#3496F7;" d="M52.451,161.33c0,10.094-8.176,18.271-18.271,18.271c-10.084,0-18.26-8.176-18.26-18.271"/>
		<path style="fill:#FFFFFF;" d="M88.981,161.33c0,10.094-8.176,18.271-18.271,18.271c-10.084,0-18.26-8.176-18.26-18.271"/>
		<path style="fill:#3496F7;" d="M125.512,161.33c0,10.094-8.176,18.271-18.26,18.271c-10.094,0-18.271-8.176-18.271-18.271"/>
		<path style="fill:#FFFFFF;" d="M162.042,161.33c0,10.094-8.176,18.271-18.26,18.271c-10.094,0-18.271-8.176-18.271-18.271"/>
		<path style="fill:#3496F7;" d="M198.573,161.33c0,10.094-8.176,18.271-18.26,18.271c-10.094,0-18.271-8.176-18.271-18.271"/>
		<path style="fill:#FFFFFF;" d="M235.114,161.33c0,10.094-8.187,18.271-18.271,18.271s-18.271-8.176-18.271-18.271"/>
		<path style="fill:#3496F7;" d="M271.645,161.33c0,10.094-8.176,18.271-18.271,18.271c-10.084,0-18.26-8.176-18.26-18.271"/>
		<path style="fill:#FFFFFF;" d="M308.176,161.33c0,10.094-8.176,18.271-18.271,18.271c-10.084,0-18.26-8.176-18.26-18.271"/>
		<path style="fill:#3496F7;" d="M344.706,161.33c0,10.094-8.176,18.271-18.271,18.271c-10.084,0-18.26-8.176-18.26-18.271"/>
		<path style="fill:#FFFFFF;" d="M344.706,161.33c0,10.094,8.176,18.271,18.271,18.271c10.084,0,18.26-8.176,18.26-18.271"/>
	</g>
	<path style="opacity:0.34;fill:#2D4151;enable-background:new    ;" d="M254.92,239.33h-113h-8.5v18v121.33
		c2.88-0.02,5.72-0.61,8.5-1.68V257.33h58.15c-0.363,3.709-0.907,7.704-1.65,11.95c1.21,6.9,2.89,14.38,5,22.09
		c2.11-7.71,3.79-15.19,5-22.09c0.529-3.021,0.965-7.998,1.306-11.95h45.194v119.65c2.78,1.07,5.62,1.66,8.5,1.68V257.33v-18
		L254.92,239.33L254.92,239.33z"/>
	<path style="fill:#FFFFFF;" d="M293.151,221.394c-62.963,6.951-126.499,6.951-189.462,0c1.244-11.264,2.487-22.53,3.731-33.794
		c60.483,6.678,121.517,6.678,182,0C290.664,198.865,291.907,210.13,293.151,221.394z"/>
	<g>
		<path style="fill:#3496F7;" d="M174.047,197.414c0.452,0.856,0.605,1.899,0.458,2.972c-0.145,1.071-0.586,2.123-1.286,3.202
			c-1.026,1.515-2.238,3.183-4.003,4.474c-1.993,1.482-4.291,2.06-6.956,1.834c-1.978-0.169-3.836-0.714-5.434-1.619
			c-0.232,0.31-0.464,0.62-0.697,0.93c-1.057,1.477-1.269,3.494-0.474,5.197c1.016,2.099,3.373,3.412,6.617,3.681
			c2.937,0.244,5.438-0.16,7.128-1.168c1.185-0.668,1.624-1.388,1.672-1.469c0.017-0.041,0.034-0.081,0.051-0.121
			c0.016-0.013,0.031-0.026,0.047-0.039c0.481-0.703,0.96-1.406,1.436-2.111c0.383-0.598,1.172-0.761,1.803-0.394
			c0.584,0.407,0.762,1.162,0.383,1.721c-0.459,0.694-0.92,1.387-1.383,2.08c-0.196,0.361-0.867,1.403-2.381,2.346
			c-1.007,0.601-2.185,1.064-3.533,1.342c-1.617,0.343-3.445,0.454-5.429,0.289c-2.203-0.187-4.107-0.772-5.612-1.71
			c-1.421-0.884-2.494-2.08-3.188-3.442c-0.573-1.267-0.818-2.627-0.673-3.986c0.146-1.36,0.627-2.599,1.434-3.679
			c0.25-0.321,0.499-0.642,0.748-0.963c-0.79-0.705-1.354-1.474-1.774-2.353c-0.487-1.051-0.669-2.115-0.546-3.226
			c0.322-2.881,2.38-5.064,5.244-5.655c0.643-0.144,1.312,0.293,1.458,0.973c0.144,0.679-0.296,1.345-0.985,1.486
			c-2.105,0.418-3.043,2.065-3.19,3.467c-0.115,1.112,0.317,2.285,1.288,3.295c0.862-1.176,1.717-2.355,2.565-3.536
			c1.217-1.634,2.653-3.496,4.361-4.846c1.881-1.417,3.799-2.055,5.869-1.909C171.38,194.643,173.183,195.705,174.047,197.414z
			 M160.913,202.671c-0.859,1.198-1.725,2.394-2.599,3.587c1.228,0.657,2.66,1.037,4.154,1.163c4.409,0.366,6.619-2.23,8.63-5.209
			c0.938-1.391,1.187-2.747,0.702-3.69c-0.446-0.9-1.497-1.467-2.913-1.566C165.807,196.735,163.493,199.078,160.913,202.671z"/>
		<path style="fill:#3496F7;" d="M178.848,208.528c-1.797,2.723-3.627,5.436-5.49,8.136c-0.335,0.481-0.405,0.927-0.207,1.315
			c0.274,0.556,1.09,0.933,1.924,0.978c1.979,0.105,3.646-1.688,4.668-3.218c0.482-0.739,0.962-1.479,1.439-2.221
			c0.37-0.569,1.198-0.742,1.793-0.389c0.594,0.393,0.786,1.146,0.418,1.714c-0.474,0.743-0.952,1.486-1.431,2.228
			c-0.881,1.336-1.846,2.372-2.892,3.075c-1.276,0.938-2.67,1.372-4.127,1.293c-1.811-0.096-3.44-1.023-4.149-2.356
			c-0.629-1.202-0.493-2.563,0.371-3.794c1.873-2.69,3.712-5.393,5.518-8.107c0.415-0.559,1.191-0.73,1.772-0.37
			C179.08,207.171,179.26,207.966,178.848,208.528z M181.73,203.925c-0.03,0.789-0.735,1.423-1.543,1.387
			c-0.85-0.037-1.457-0.727-1.421-1.514c0.039-0.828,0.701-1.419,1.544-1.383C181.112,202.45,181.762,203.095,181.73,203.925z"/>
		<path style="fill:#3496F7;" d="M188.618,204.798c-0.221,0.45-0.404,0.86,0.391,1.582c1.158,1.005,2.324,2.005,3.498,3
			c0.467,0.42,0.545,1.084,0.238,1.577c-1.303,2.111-2.626,4.215-3.967,6.312c-0.225,0.327-0.547,0.983-0.207,1.528
			c0.254,0.42,0.864,0.679,1.611,0.695c1.935,0.034,3.537-1.813,4.506-3.38c0.456-0.756,0.91-1.513,1.361-2.27
			c0.349-0.578,1.171-0.784,1.777-0.452c0.606,0.372,0.825,1.117,0.479,1.698c-0.449,0.76-0.9,1.518-1.353,2.277
			c-0.834,1.365-1.761,2.437-2.781,3.174c-1.241,0.983-2.619,1.462-4.034,1.438c-1.723-0.029-3.21-0.773-3.882-1.992
			c-0.715-1.223-0.582-2.667,0.283-4.011c1.167-1.791,2.319-3.588,3.457-5.389c-0.833-0.72-1.662-1.442-2.486-2.167
			c-1.694,2.692-3.419,5.374-5.176,8.045c-0.275,0.363-0.721,0.597-1.159,0.578c-0.217-0.009-0.433-0.103-0.648-0.191
			c-0.595-0.396-0.78-1.151-0.409-1.716c1.983-2.984,3.927-5.983,5.831-8.994c-0.189-0.836-0.035-1.742,0.498-2.596
			c0.355-0.571,1.12-0.758,1.745-0.411C188.773,203.474,188.97,204.227,188.618,204.798z"/>
		<path style="fill:#3496F7;" d="M209.561,205.564c0.8,1.262,0.729,2.92-0.174,4.52c-0.328,0.589-1.098,0.819-1.752,0.5
			c-0.61-0.315-0.841-1.1-0.51-1.687c0.453-0.795,0.563-1.545,0.254-2.036c-0.266-0.407-0.825-0.644-1.591-0.629
			c-0.892,0.019-1.654,0.361-2.37,1.033c-0.886,0.796-1.644,2.007-2.196,2.963c-0.891,1.525-1.791,3.049-2.701,4.569
			c-0.563,0.912-0.567,2.113-0.038,3.023c0.7,1.116,2.198,1.737,4.176,1.713c0.015,0,0.03,0,0.045,0
			c1.267-0.013,3.972-0.054,6.528-4.059c0.263-0.477,0.525-0.954,0.787-1.43c0.373-0.63,1.146-0.865,1.761-0.551
			c0.66,0.31,0.906,1.088,0.578,1.679c-0.273,0.492-0.548,0.985-0.823,1.477c-0.014,0.014-0.028,0.029-0.042,0.043
			c-3.25,5.205-7.179,5.311-8.717,5.325c-0.015,0-0.029,0-0.044,0s-0.03,0-0.045,0c-4.027,0.04-5.789-1.842-6.44-2.957
			c-0.524-0.873-0.78-1.827-0.774-2.82c0.004-0.954,0.271-1.861,0.794-2.688c0.915-1.515,1.821-3.033,2.716-4.554
			c1.625-2.699,3.503-5.19,6.758-5.251C207.434,203.714,208.804,204.384,209.561,205.564z"/>
		<path style="fill:#3496F7;" d="M225.647,205.255c-1.961,3.867-3.981,7.72-6.063,11.558c-0.28,0.512-0.301,0.97-0.064,1.33
			c0.333,0.522,1.141,0.813,2.019,0.764c1.977-0.111,3.397-2.07,4.249-3.7c0.414-0.788,0.826-1.577,1.235-2.366
			c0.307-0.606,1.069-0.863,1.741-0.581c0.633,0.327,0.906,1.052,0.602,1.658c-0.407,0.792-0.816,1.583-1.227,2.373
			c-0.732,1.423-1.582,2.559-2.5,3.366c-1.167,1.069-2.506,1.653-3.963,1.731c-1.723,0.095-3.304-0.534-4.191-1.655
			c-1.135,1.172-2.564,1.979-4.419,2.044c-1.769,0.063-3.202-0.603-3.981-1.783c-0.827-1.263-0.728-2.922,0.187-4.521
			c2.066-3.618,4.077-7.252,6.033-10.899c0.315-0.592,1.067-0.834,1.718-0.531c0.608,0.303,0.859,1.078,0.546,1.674
			c-1.943,3.657-3.941,7.302-5.995,10.931c-0.456,0.803-0.564,1.55-0.242,2.038c0.275,0.406,0.856,0.636,1.646,0.608
			c0.922-0.033,1.656-0.392,2.419-1.086c0.889-0.825,1.62-2.059,2.141-3.037c1.995-3.658,3.936-7.33,5.822-11.014
			c0.304-0.6,1.051-0.854,1.708-0.565C225.683,203.879,225.95,204.652,225.647,205.255z"/>
		<path style="fill:#3496F7;" d="M234.741,203.173c-0.027,0.168-0.055,0.337-0.126,0.51c-0.691,1.848,0.454,3.744,1.68,5.753
			c0.661,1.062,1.33,2.164,1.738,3.248c0.483,1.41,0.519,2.656,0.011,3.825c-0.184,0.393-0.367,0.783-0.599,1.138
			c1.539-0.557,2.652-2.25,3.339-3.694c0.387-0.802,0.77-1.605,1.152-2.408c0.286-0.613,1.081-0.905,1.72-0.642
			c0.645,0.302,0.943,1.022,0.661,1.636c-0.379,0.805-0.76,1.61-1.144,2.415c-0.682,1.446-1.447,2.607-2.381,3.452
			c-1.13,1.114-2.449,1.739-3.904,1.87c-0.587,0.053-1.175,0.105-1.762,0.156c-1.584,0.141-4.856,0.401-6.649-1.219
			c-0.002-0.042-0.049-0.081-0.097-0.118c-0.477-0.505-0.444-1.298,0.095-1.75c0.208-0.183,0.461-0.324,0.722-0.343
			c0,0.003,0.044-0.005,0.088-0.006c0.014-0.001,0.029-0.002,0.043-0.003c0.044-0.004,0.043-0.004,0.044-0.003
			c0.308,0.019,0.624,0.119,0.905,0.348c0.32,0.183,1.849,0.565,3.227,0.158c0.989-0.29,1.683-0.933,2.125-1.887
			c0.58-1.384-0.447-2.996-1.563-4.894c-0.606-0.986-1.212-2.017-1.645-3.103c-1.313,2.685-2.654,5.364-4.024,8.037
			c-0.308,0.604-1.122,0.866-1.756,0.579c-0.636-0.33-0.902-1.061-0.593-1.662c2.089-4.027,4.113-8.068,6.072-12.124
			c0.039-0.045,0.078-0.089,0.117-0.134c0.812-0.94,1.648-0.598,1.873-0.452C234.472,202.074,234.85,202.497,234.741,203.173z"/>
	</g>
	<g>
		<circle style="fill:#2D4151;" cx="112.17" cy="193.933" r="2.75"/>
		<circle style="fill:#2D4151;" cx="110.67" cy="216.183" r="2.75"/>
		<circle style="fill:#2D4151;" cx="284.67" cy="193.933" r="2.75"/>
		<circle style="fill:#2D4151;" cx="286.17" cy="216.183" r="2.75"/>
	</g>
</g>
<g>
</g>
<g>
</g>
<g>
</g>
<g>
</g>
<g>
</g>
<g>
</g>
<g>
</g>
<g>
</g>
<g>
</g>
<g>
</g>
<g>
</g>
<g>
</g>
<g>
</g>
<g>
</g>
<g>
</g>
</svg>
