<?xml version="1.0" encoding="iso-8859-1"?>
<!-- Generator: Adobe Illustrator 19.0.0, SVG Export Plug-In . SVG Version: 6.00 Build 0)  -->
<svg version="1.1" id="Layer_1" xmlns="http://www.w3.org/2000/svg" xmlns:xlink="http://www.w3.org/1999/xlink" x="0px" y="0px"
	 viewBox="0 0 421.919 421.919" style="enable-background:new 0 0 421.919 421.919;" xml:space="preserve">
<g>
	<path style="fill:#F75959;" d="M210.964,0c-9,0-17.87,0.56-26.57,1.65c-9.73,1.23-19.25,3.11-28.52,5.62
		C66.084,31.49,0.004,113.51,0.004,210.96c0,116.51,94.45,210.959,210.96,210.959c9,0,17.86-0.56,26.56-1.65
		c9.73-1.23,19.26-3.11,28.53-5.62c89.79-24.22,155.86-106.24,155.86-203.69C421.914,94.45,327.474,0,210.964,0 M210.964,308.49
		c-4.88,0-9.67-0.36-14.35-1.05c-16.35-2.41-31.38-8.88-44.03-18.33l-0.01-0.01c-23.77-17.79-39.15-46.17-39.15-78.14
		c0-53.86,43.67-97.53,97.54-97.53c4.87,0,9.66,0.36,14.33,1.05c16.37,2.41,31.42,8.89,44.08,18.37
		c23.75,17.79,39.12,46.161,39.12,78.11C308.494,264.83,264.824,308.49,210.964,308.49"/>
	<path style="fill:#B7ED62;" d="M210.964,0v113.43c4.87,0,9.66,0.36,14.33,1.05c16.37,2.41,31.42,8.89,44.08,18.37
		c23.75,17.79,39.12,46.161,39.12,78.11h113.42C421.914,94.45,327.474,0,210.964,0 M152.584,289.11l-0.01-0.01
		c-23.77-17.79-39.151-46.17-39.151-78.14H0.004c0,116.51,94.45,210.959,210.96,210.959V308.49c-4.88,0-9.67-0.36-14.349-1.05
		C180.264,305.03,165.234,298.56,152.584,289.11"/>
	<path style="fill:#E35B5B;" d="M421.914,210.96h-24.71c0,102.86-83.38,186.24-186.24,186.24l0,0v24.719l0,0
		c9,0,17.86-0.56,26.56-1.65c9.73-1.23,19.26-3.11,28.53-5.62C355.844,390.43,421.914,308.41,421.914,210.96 M210.964,0
		c-9,0-17.87,0.56-26.57,1.65c-9.73,1.23-19.25,3.11-28.52,5.62C66.084,31.49,0.004,113.51,0.004,210.96l0,0h24.72l0,0
		c0-102.86,83.38-186.24,186.24-186.24V0L210.964,0"/>
	<path style="fill:#ACDA63;" d="M24.724,210.96H0.004c0,116.51,94.45,210.959,210.96,210.959V397.2
		C108.104,397.2,24.724,313.82,24.724,210.96 M210.964,0L210.964,0v24.72l0,0c102.86,0,186.24,83.38,186.24,186.24l0,0h24.71l0,0
		c0-5.405-0.203-10.762-0.602-16.064C413.109,85.947,322.162,0.088,211.134,0C211.078,0,211.021,0,210.964,0"/>
	<path style="fill:#E35B5B;" d="M324.954,210.96h-16.46l0,0l0,0l0,0c0,53.87-43.67,97.53-97.53,97.53v16.47
		C273.919,324.954,324.954,273.916,324.954,210.96 M210.954,96.96c-62.95,0-114,51.04-114,114l0,0h16.47l0,0l0,0l0,0
		c0-53.86,43.67-97.53,97.54-97.53V96.96C210.96,96.96,210.958,96.96,210.954,96.96"/>
	<path style="fill:#ACDA63;" d="M113.424,210.96h-16.47c0,62.96,51.05,114,114,114c0.004,0,0.006,0,0.01,0v-16.47
		c-0.877,0-1.751-0.012-2.622-0.035c-3.976-0.105-7.889-0.449-11.728-1.015c-13.603-2.005-26.293-6.821-37.459-13.825
		c-2.254-1.414-4.446-2.917-6.571-4.505l0,0l-0.01-0.01c-20.52-15.358-34.788-38.608-38.305-65.247
		C113.711,219.635,113.424,215.331,113.424,210.96L113.424,210.96 M210.964,96.96v16.47l0,0c4.87,0,9.66,0.36,14.33,1.05
		c16.37,2.41,31.42,8.89,44.08,18.37c23.75,17.79,39.12,46.161,39.12,78.11l0,0l0,0h16.46l0,0
		C324.954,148.004,273.919,96.967,210.964,96.96"/>
</g>
<g>
</g>
<g>
</g>
<g>
</g>
<g>
</g>
<g>
</g>
<g>
</g>
<g>
</g>
<g>
</g>
<g>
</g>
<g>
</g>
<g>
</g>
<g>
</g>
<g>
</g>
<g>
</g>
<g>
</g>
</svg>
