<?xml version="1.0" encoding="iso-8859-1"?>
<!-- Generator: Adobe Illustrator 18.0.0, SVG Export Plug-In . SVG Version: 6.00 Build 0)  -->
<!DOCTYPE svg PUBLIC "-//W3C//DTD SVG 1.1//EN" "http://www.w3.org/Graphics/SVG/1.1/DTD/svg11.dtd">
<svg version="1.1" id="Capa_1" xmlns="http://www.w3.org/2000/svg" xmlns:xlink="http://www.w3.org/1999/xlink" x="0px" y="0px"
	 viewBox="0 0 512 512" style="enable-background:new 0 0 512 512;" xml:space="preserve">
<g>
	<path style="fill:#3CB44A;" d="M249.123,141.897c-2.841-2.804-7.405-2.804-10.247,0c-0.847,0.835-1.839,1.39-2.876,1.726v81.703
		c-10.259-10.492-24.529-17.094-40.127-17.29c-0.664-13.671-4.947-25.325-13.326-33.731c-11.531-11.547-29.102-15.398-49.679-12.609
		c-2.774,20.562,1.046,38.132,12.617,49.672c11.516,11.5,29.093,15.336,49.68,12.633c22.052,0,40.831,17.941,40.834,39.993V312H252
		V143.623C250.962,143.287,249.97,142.732,249.123,141.897z"/>
	<path style="fill:#ED2C39;" d="M249.123,2.103L249.123,2.103c3.499-3.452,9.342-2.527,11.602,1.838l0,0
		c1.836,3.543,6.178,4.954,9.747,3.166l0,0c4.394-2.202,9.664,0.484,10.466,5.334l0,0c0.651,3.937,4.345,6.621,8.29,6.023l0,0
		c4.86-0.735,9.043,3.446,8.307,8.306l0,0c-0.599,3.946,2.085,7.641,6.023,8.291l0,0c4.849,0.801,7.534,6.071,5.333,10.466l0,0
		c-1.789,3.568-0.378,7.91,3.166,9.746l0,0c4.365,2.261,5.29,8.103,1.838,11.602l0,0c-2.802,2.841-2.802,7.407,0,10.248l0,0
		c3.453,3.499,2.527,9.342-1.838,11.603l0,0c-3.544,1.834-4.955,6.177-3.166,9.745l0,0c2.202,4.395-0.484,9.666-5.333,10.466l0,0
		c-3.938,0.65-6.622,4.346-6.023,8.291l0,0c0.736,4.86-3.447,9.042-8.307,8.306l0,0c-3.946-0.598-7.639,2.087-8.29,6.024l0,0
		c-0.802,4.85-6.072,7.535-10.466,5.332l0,0c-3.569-1.787-7.911-0.376-9.747,3.168l0,0c-2.261,4.365-8.103,5.289-11.602,1.838l0,0
		c-2.841-2.804-7.406-2.804-10.247,0l0,0c-3.499,3.452-9.341,2.527-11.602-1.838l0,0c-1.836-3.544-6.179-4.955-9.747-3.168l0,0
		c-4.394,2.203-9.664-0.482-10.466-5.332l0,0c-0.65-3.937-4.344-6.622-8.29-6.024l0,0c-4.86,0.736-9.043-3.446-8.308-8.306l0,0
		c0.599-3.945-2.085-7.641-6.023-8.291l0,0c-4.849-0.801-7.534-6.071-5.332-10.466l0,0c1.788-3.568,0.377-7.911-3.167-9.745l0,0
		c-4.364-2.261-5.29-8.103-1.837-11.603l0,0c2.802-2.841,2.802-7.407,0-10.248l0,0c-3.454-3.499-2.527-9.342,1.837-11.602l0,0
		c3.544-1.836,4.955-6.178,3.167-9.746l0,0c-2.202-4.395,0.483-9.665,5.332-10.466l0,0c3.938-0.65,6.622-4.346,6.023-8.291l0,0
		c-0.735-4.86,3.448-9.041,8.308-8.306l0,0c3.946,0.598,7.639-2.086,8.29-6.023l0,0c0.802-4.85,6.073-7.535,10.466-5.334l0,0
		c3.568,1.788,7.911,0.377,9.747-3.166l0,0c2.261-4.365,8.102-5.29,11.602-1.838l0,0C241.717,4.907,246.282,4.907,249.123,2.103z"/>
	<path style="fill:#0E9247;" d="M249.123,141.897c-1.42-1.402-3.271-2.104-5.123-2.103V312h8V143.623
		C250.962,143.287,249.97,142.732,249.123,141.897z"/>
	<circle style="fill:#F6B74E;" cx="244" cy="72" r="24"/>
	<path style="fill:#CB202C;" d="M290.597,68.584c2.302-2.333,1.685-6.228-1.225-7.735c-2.362-1.224-3.303-4.118-2.111-6.497
		c1.468-2.931-0.322-6.444-3.554-6.978c-2.626-0.434-4.416-2.897-4.016-5.527c0.49-3.24-2.298-6.028-5.539-5.538
		c-2.63,0.398-5.093-1.391-5.526-4.016c-0.534-3.233-4.048-5.023-6.978-3.555c-2.378,1.192-5.273,0.251-6.498-2.111
		c-1.507-2.91-5.402-3.526-7.735-1.225c-1.894,1.869-4.937,1.869-6.831,0c-2.333-2.302-6.227-1.685-7.734,1.225
		c-1.224,2.362-4.119,3.303-6.499,2.111c-2.929-1.468-6.442,0.322-6.978,3.555c-0.434,2.625-2.896,4.415-5.526,4.016
		c-3.24-0.491-6.029,2.297-5.539,5.538c0.399,2.63-1.39,5.094-4.015,5.527c-3.233,0.533-5.023,4.047-3.555,6.978
		c1.192,2.378,0.251,5.272-2.111,6.497c-2.909,1.507-3.527,5.402-1.225,7.735c1.868,1.894,1.868,4.937,0,6.832
		c-2.302,2.333-1.685,6.227,1.225,7.734c2.363,1.223,3.303,4.118,2.111,6.498c-1.468,2.93,0.322,6.443,3.555,6.978
		c2.625,0.434,4.415,2.897,4.015,5.527c-0.49,3.24,2.298,6.028,5.539,5.538c2.63-0.398,5.093,1.391,5.526,4.015
		c0.535,3.233,4.049,5.024,6.978,3.555c2.379-1.191,5.274-0.25,6.499,2.112c1.507,2.91,5.401,3.526,7.734,1.225
		c1.895-1.869,4.938-1.869,6.831,0c2.333,2.301,6.228,1.685,7.735-1.225c1.224-2.362,4.119-3.303,6.498-2.112
		c2.93,1.469,6.443-0.322,6.978-3.555c0.434-2.624,2.896-4.414,5.526-4.015c3.24,0.49,6.029-2.298,5.539-5.538
		c-0.399-2.63,1.39-5.094,4.016-5.527c3.232-0.534,5.022-4.048,3.554-6.978c-1.192-2.379-0.251-5.274,2.111-6.498
		c2.91-1.507,3.527-5.402,1.225-7.734C288.728,73.522,288.728,70.478,290.597,68.584z M244,96c-13.255,0-24-10.745-24-24
		c0-13.255,10.745-24,24-24c13.254,0,24,10.745,24,24C268,85.255,257.254,96,244,96z"/>
	<path style="fill:#ED2C39;" d="M304.585,145.403L304.585,145.403c-2.333-2.301-6.228-1.685-7.735,1.225l0,0
		c-1.224,2.362-4.119,3.303-6.498,2.111l0,0c-2.929-1.468-6.442,0.322-6.977,3.555l0,0c-0.434,2.625-2.896,4.414-5.526,4.016l0,0
		c-3.24-0.49-6.029,2.298-5.538,5.538l0,0c0.399,2.63-1.39,5.094-4.016,5.527l0,0c-3.232,0.534-5.022,4.047-3.554,6.977l0,0
		c1.192,2.379,0.251,5.273-2.111,6.497l0,0c-2.91,1.507-3.527,5.402-1.225,7.735l0,0c1.868,1.894,1.868,4.938,0,6.832l0,0
		c-2.302,2.333-1.685,6.227,1.225,7.734l0,0c2.362,1.223,3.303,4.118,2.111,6.497l0,0c-1.468,2.93,0.322,6.443,3.554,6.978l0,0
		c2.626,0.434,4.415,2.897,4.016,5.527l0,0c-0.49,3.24,2.298,6.028,5.538,5.538l0,0c2.63-0.398,5.093,1.391,5.526,4.015l0,0
		c0.534,3.234,4.048,5.024,6.977,3.555l0,0c2.379-1.191,5.274-0.25,6.498,2.112l0,0c1.507,2.91,5.402,3.526,7.735,1.225l0,0
		c1.894-1.869,4.937-1.869,6.831,0l0,0c2.333,2.302,6.227,1.685,7.734-1.225l0,0c1.224-2.362,4.119-3.303,6.498-2.112l0,0
		c2.929,1.469,6.442-0.322,6.978-3.555l0,0c0.434-2.624,2.896-4.414,5.526-4.015l0,0c3.24,0.49,6.029-2.298,5.538-5.538l0,0
		c-0.399-2.63,1.39-5.094,4.015-5.527l0,0c3.233-0.535,5.023-4.048,3.555-6.978l0,0c-1.192-2.379-0.251-5.274,2.111-6.497l0,0
		c2.91-1.507,3.527-5.402,1.225-7.734l0,0c-1.868-1.894-1.868-4.938,0-6.832l0,0c2.302-2.333,1.685-6.228-1.225-7.735l0,0
		c-2.362-1.224-3.303-4.118-2.111-6.497l0,0c1.468-2.93-0.322-6.444-3.555-6.977l0,0c-2.626-0.434-4.414-2.897-4.015-5.527l0,0
		c0.49-3.24-2.298-6.028-5.538-5.538l0,0c-2.63,0.398-5.093-1.391-5.526-4.016l0,0c-0.535-3.233-4.049-5.023-6.978-3.555l0,0
		c-2.379,1.192-5.274,0.251-6.498-2.111l0,0c-1.507-2.91-5.402-3.526-7.734-1.225l0,0
		C309.521,147.271,306.478,147.271,304.585,145.403z"/>
	<path style="fill:#3CB44A;" d="M356.202,247.795c-15.712-2.13-29.128,0.811-37.932,9.628c-0.794,0.797-1.531,1.706-2.27,2.606
		v-20.254c-1.571,0.395-3.302,0.089-4.584-1.177c-1.895-1.869-4.938-1.869-6.831,0c-1.283,1.266-3.014,1.572-4.584,1.177L300,312h16
		v-16.079c12.522,0.367,23.189-2.831,30.569-10.201C355.403,276.91,358.32,263.494,356.202,247.795z"/>
	<path style="fill:#C63B22;" d="M305.723,160.935L305.723,160.935c-1.555-1.534-4.152-1.123-5.157,0.817l0,0
		c-0.816,1.575-2.746,2.202-4.332,1.407l0,0c-1.953-0.979-4.295,0.215-4.651,2.371l0,0c-0.29,1.75-1.931,2.942-3.685,2.677l0,0
		c-2.16-0.327-4.019,1.531-3.692,3.691l0,0c0.266,1.754-0.926,3.396-2.677,3.686l0,0c-2.155,0.356-3.349,2.699-2.37,4.651l0,0
		c0.795,1.586,0.168,3.516-1.407,4.332l0,0c-1.94,1.005-2.351,3.601-0.817,5.156l0,0c1.246,1.263,1.246,3.292,0,4.555l0,0
		c-1.534,1.555-1.123,4.151,0.817,5.156l0,0c1.575,0.815,2.202,2.746,1.407,4.332l0,0c-0.978,1.953,0.215,4.295,2.37,4.651l0,0
		c1.75,0.29,2.943,1.931,2.677,3.685l0,0c-0.327,2.16,1.532,4.019,3.692,3.692l0,0c1.754-0.266,3.395,0.927,3.685,2.677l0,0
		c0.356,2.156,2.698,3.35,4.651,2.37l0,0c1.586-0.794,3.516-0.167,4.332,1.408l0,0c1.005,1.939,3.602,2.35,5.157,0.816l0,0
		c1.262-1.245,3.291-1.245,4.554,0l0,0c1.555,1.535,4.151,1.123,5.156-0.816l0,0c0.816-1.575,2.746-2.202,4.332-1.408l0,0
		c1.953,0.979,4.295-0.214,4.652-2.37l0,0c0.289-1.75,1.93-2.942,3.684-2.677l0,0c2.16,0.327,4.019-1.532,3.693-3.692l0,0
		c-0.266-1.753,0.926-3.395,2.677-3.685l0,0c2.155-0.356,3.349-2.698,2.37-4.651l0,0c-0.794-1.586-0.167-3.517,1.408-4.332l0,0
		c1.939-1.005,2.351-3.601,0.816-5.156l0,0c-1.245-1.263-1.245-3.292,0-4.555l0,0c1.535-1.555,1.123-4.151-0.816-5.156l0,0
		c-1.575-0.816-2.202-2.745-1.408-4.332l0,0c0.979-1.953-0.214-4.295-2.37-4.651l0,0c-1.75-0.29-2.943-1.932-2.677-3.686l0,0
		c0.326-2.16-1.533-4.018-3.693-3.691l0,0c-1.754,0.266-3.395-0.927-3.684-2.677l0,0c-0.357-2.156-2.699-3.35-4.652-2.371l0,0
		c-1.586,0.795-3.516,0.168-4.332-1.407l0,0c-1.005-1.94-3.601-2.35-5.156-0.817l0,0
		C309.014,162.181,306.985,162.181,305.723,160.935z"/>
	<circle style="fill:#F6B74E;" cx="308" cy="192" r="8"/>
	<circle style="fill:#F6B74E;" cx="308" cy="192" r="8"/>
	<path style="fill:#CB202C;" d="M339.065,189.722c1.535-1.555,1.123-4.151-0.816-5.156c-1.575-0.816-2.202-2.746-1.408-4.332
		c0.979-1.953-0.214-4.295-2.37-4.651c-1.75-0.29-2.943-1.932-2.677-3.686c0.326-2.16-1.533-4.019-3.693-3.691
		c-1.753,0.266-3.395-0.927-3.684-2.677c-0.357-2.156-2.699-3.35-4.652-2.371c-1.586,0.795-3.516,0.168-4.332-1.407
		c-1.005-1.94-3.601-2.35-5.156-0.817c-1.263,1.247-3.292,1.247-4.554,0c-1.555-1.533-4.152-1.123-5.157,0.817
		c-0.816,1.575-2.747,2.203-4.332,1.407c-1.953-0.979-4.295,0.215-4.651,2.371c-0.29,1.75-1.931,2.942-3.685,2.677
		c-2.16-0.327-4.02,1.531-3.692,3.691c0.266,1.753-0.927,3.396-2.677,3.686c-2.155,0.356-3.349,2.698-2.37,4.651
		c0.795,1.586,0.168,3.516-1.407,4.332c-1.94,1.005-2.351,3.601-0.817,5.156c1.246,1.263,1.246,3.292,0,4.555
		c-1.534,1.555-1.123,4.151,0.817,5.156c1.575,0.815,2.202,2.746,1.407,4.332c-0.979,1.953,0.215,4.295,2.37,4.651
		c1.75,0.29,2.943,1.931,2.677,3.685c-0.328,2.16,1.532,4.019,3.692,3.692c1.753-0.266,3.395,0.927,3.685,2.677
		c0.356,2.156,2.699,3.35,4.651,2.371c1.585-0.794,3.516-0.167,4.332,1.408c1.005,1.939,3.602,2.351,5.157,0.816
		c1.262-1.246,3.291-1.246,4.554,0c1.555,1.535,4.151,1.124,5.156-0.816c0.816-1.575,2.746-2.202,4.332-1.408
		c1.953,0.979,4.295-0.214,4.652-2.371c0.289-1.75,1.931-2.942,3.684-2.677c2.16,0.327,4.019-1.532,3.693-3.692
		c-0.267-1.754,0.926-3.396,2.677-3.685c2.155-0.356,3.349-2.698,2.37-4.651c-0.794-1.586-0.167-3.517,1.408-4.332
		c1.939-1.005,2.352-3.601,0.816-5.156C337.82,193.014,337.82,190.985,339.065,189.722z M308,200c-4.418,0-8-3.582-8-8s3.582-8,8-8
		s8,3.582,8,8S312.418,200,308,200z"/>
	<path style="fill:#A25425;" d="M372,312H164c-4.4,0-8,3.6-8,8v32c0,4.4,3.6,8,8,8h8l21.868,138.495
		c1.227,7.777,7.93,13.505,15.804,13.505H252h16h58.328c7.873,0,14.576-5.728,15.804-13.505L364,360h8c4.4,0,8-3.6,8-8v-32
		C380,315.6,376.4,312,372,312z"/>
	<path style="fill:#7F4122;" d="M364,336c0,4.418-3.582,8-8,8H180c-8.837,0-16,7.163-16,16h160l-19.342,122.495
		c-1.228,7.777-7.93,13.505-15.804,13.505h-95.381l0.395,2.495c1.228,7.777,7.931,13.505,15.805,13.505h116.655
		c7.874,0,14.576-5.728,15.804-13.505L364,360h8c4.418,0,8-3.582,8-8v-32C371.163,320,364,327.163,364,336z"/>
	<g>
		<path style="fill:#0E9247;" d="M356.202,247.795L317.7,286.296c-2.29,2.291-5.398,3.579-8.638,3.579h-1.065L308,296v16h8v-16
			v-0.08c12.524,0.377,23.19-2.839,30.574-10.198C355.388,276.919,358.329,263.504,356.202,247.795z"/>
		<path style="fill:#0E9247;" d="M316,239.774c-1.571,0.396-3.302,0.089-4.584-1.177c-0.947-0.935-2.182-1.402-3.416-1.402l0,38.929
			c1.482-6.055,4.35-11.648,8-16.096V239.774z"/>
	</g>
	<path style="fill:#0E9247;" d="M195.999,216.828l0.002-0.021h-1.395c-4.244,0-8.313-1.686-11.314-4.687l-50.425-50.425
		c-2.787,20.574,1.064,38.143,12.609,49.673c11.521,11.482,29.095,15.357,49.683,12.619l-0.001-0.001h0.005V224
		C217.22,224,236,241.945,236,264v-25.862C227.324,225.312,212.494,216.83,195.999,216.828z"/>
</g>
<g>
</g>
<g>
</g>
<g>
</g>
<g>
</g>
<g>
</g>
<g>
</g>
<g>
</g>
<g>
</g>
<g>
</g>
<g>
</g>
<g>
</g>
<g>
</g>
<g>
</g>
<g>
</g>
<g>
</g>
</svg>
