<?xml version="1.0" encoding="iso-8859-1"?>
<!-- Generator: Adobe Illustrator 19.0.0, SVG Export Plug-In . SVG Version: 6.00 Build 0)  -->
<svg version="1.1" id="Layer_1" xmlns="http://www.w3.org/2000/svg" xmlns:xlink="http://www.w3.org/1999/xlink" x="0px" y="0px"
	 viewBox="0 0 325.562 325.562" style="enable-background:new 0 0 325.562 325.562;" xml:space="preserve">
<g>
	<g>
		<rect x="22.343" y="141.309" style="fill:#006098;" width="280.874" height="182.358"/>
		<rect x="135.901" y="141.309" style="fill:#BA5061;" width="53.759" height="182.358"/>
		<rect x="158.44" y="141.309" style="fill:#D9D9D9;" width="8.681" height="182.358"/>
	</g>
	<g>
		<path style="fill:#D85C72;" d="M258.09,13.323c-15.238-15.238-39.942-15.238-55.18,0c-11.131,10.299-35.054,53.198-40.567,67.521
			l68.19-0.912V79.93c9.975-0.007,19.946-3.817,27.557-11.427C273.329,53.265,273.329,28.561,258.09,13.323z"/>
		<path style="fill:#803743;" d="M258.598,31.751c-11.021-11.021-28.891-11.021-39.912,0c-8.052,7.451-25.039,37.819-29.026,48.18
			h40.873v-0.002c9.975-0.007,19.946-3.817,27.557-11.427c3.747-3.748,6.569-8.07,8.473-12.682
			C267.812,47.297,265.158,38.312,258.598,31.751z"/>
	</g>
	<g>
		<path style="fill:#D85C72;" d="M67.47,13.323c15.238-15.238,39.942-15.238,55.18,0c11.132,10.299,34.931,53.323,40.443,67.646
			l-68.066-1.037V79.93c-9.975-0.007-19.946-3.817-27.557-11.427C52.232,53.265,52.232,28.561,67.47,13.323z"/>
		<path style="fill:#803743;" d="M66.963,31.751c11.021-11.021,28.89-11.021,39.912,0c8.052,7.451,25.039,37.819,29.026,48.18
			H95.027v-0.002c-9.975-0.007-19.946-3.817-27.557-11.427c-3.748-3.748-6.569-8.07-8.473-12.682
			C57.749,47.297,60.403,38.312,66.963,31.751z"/>
	</g>
	<g>
		<polygon style="fill:#00BCB4;" points="325.562,79.93 189.66,79.93 178.343,86.093 167.121,79.93 158.44,79.93 148.093,85.031 
			135.901,79.93 0,79.93 0,141.309 135.901,141.309 147.531,130.718 158.441,141.309 167.121,141.309 178.218,134.718 
			189.66,141.309 325.562,141.309 		"/>
		<rect x="135.901" y="79.93" style="fill:#D85C72;" width="53.759" height="61.379"/>
		<rect x="158.44" y="79.931" style="fill:#FFFFFF;" width="8.681" height="61.378"/>
	</g>
</g>
<g>
</g>
<g>
</g>
<g>
</g>
<g>
</g>
<g>
</g>
<g>
</g>
<g>
</g>
<g>
</g>
<g>
</g>
<g>
</g>
<g>
</g>
<g>
</g>
<g>
</g>
<g>
</g>
<g>
</g>
</svg>
