<?xml version="1.0" encoding="iso-8859-1"?>
<!-- Generator: Adobe Illustrator 19.0.0, SVG Export Plug-In . SVG Version: 6.00 Build 0)  -->
<svg version="1.1" id="Layer_1" xmlns="http://www.w3.org/2000/svg" xmlns:xlink="http://www.w3.org/1999/xlink" x="0px" y="0px"
	 viewBox="0 0 460 460" style="enable-background:new 0 0 460 460;" xml:space="preserve">
<g id="XMLID_2892_">
	<path id="XMLID_10_" style="fill:#3F4244;" d="M460,400v30c0,16.568-13.431,30-30,30h-20.294H50.294H30c-16.569,0-30-13.432-30-30
		v-30c0-33.137,26.863-60,60-60h9.754l36.094-222.579C108.411,101.614,122.06,90,138.073,90h183.853
		c16.013,0,29.663,11.614,32.226,27.421L390.246,340H400C433.137,340,460,366.863,460,400z"/>
	<path id="XMLID_479_" style="fill:#6E7575;" d="M325,355c0,52.467-42.533,95-95,95s-95-42.533-95-95s42.533-95,95-95
		S325,302.533,325,355z"/>
	<path id="XMLID_496_" style="fill:#2D2D2D;" d="M230,300c-2.761,0-5,2.239-5,5s2.239,5,5,5s5-2.239,5-5S232.761,300,230,300z"/>
	<path id="XMLID_8_" style="fill:#2D2D2D;" d="M460,400v30c0,16.568-13.431,30-30,30h-20.294H320h-70h-40h-70H50.294H30
		c-16.569,0-30-13.432-30-30v-30c0-12.755,3.992-24.571,10.777-34.292C27.199,397.93,60.688,420,99.333,420H140h43.061
		c4.173,0,7.907-2.591,9.368-6.501l13.895-37.196C208.6,372.4,212.778,370,217.296,370c7.016,0,12.704,5.688,12.704,12.704
		c0-7.016,5.688-12.704,12.704-12.704c4.518,0,8.696,2.4,10.973,6.303l13.895,37.196c1.46,3.91,5.195,6.501,9.368,6.501H320h40.667
		c38.645,0,72.135-22.07,88.556-54.292C456.008,375.429,460,387.245,460,400z"/>
	<path id="XMLID_478_" style="fill:#3F4244;" d="M270,460h-20c-11.046,0-20-8.954-20-20c0,11.046-8.954,20-20,20h-20
		c11.046,0,20-8.954,20-20v-57.296c0-2.955-1.017-5.666-2.709-7.824c2.387-3.054,6.066-4.88,10.005-4.88
		c7.016,0,12.704,5.688,12.704,12.704c0-7.016,5.688-12.704,12.704-12.704c3.939,0,7.618,1.826,10.005,4.88
		c-1.691,2.158-2.709,4.869-2.709,7.824V440C250,451.046,258.954,460,270,460z"/>
	<path id="XMLID_1509_" style="fill:#505960;" d="M322.742,460L322.742,460c-18.322,0-32.258-16.452-29.246-34.524L297.742,400v-20
		h50v20l4.246,25.476C355,443.548,341.063,460,322.742,460z"/>
	<path id="XMLID_827_" style="fill:#6E7575;" d="M322.742,460c-4.877,0-9.438-1.175-13.457-3.227
		c11.077-5.656,17.999-18.036,15.789-31.297L320.827,400v-20h26.915v20l4.246,25.476C355,443.548,341.063,460,322.742,460z"/>
	<path id="XMLID_475_" style="fill:#2D2D2D;" d="M360.831,420l0.956,4.266c-10.824,3.675-24.282,5.882-39.044,5.882l0,0
		c-14.762,0-28.22-2.207-39.044-5.882l0.956-4.266h2.313h6.119v-22.625c-2-1.829-3.263-4.451-3.263-7.375V90h31.927
		c16.918,0,37.976,18.148,40.539,33.955L390,339.575L359.823,390c0,4.631-3.152,8.515-7.424,9.653V420h6.119H360.831z"/>
	<path id="XMLID_940_" style="fill:#3D4347;" d="M322.742,90h-40v150v169.355c0,5.879,5.117,10.645,11.428,10.645h57.143
		c6.312,0,11.428-4.766,11.428-10.645V240V130C362.742,107.909,344.833,90,322.742,90z"/>
	<path id="XMLID_807_" style="fill:#505960;" d="M340,93.907V240v169.355c0,5.879-5.117,10.645-11.428,10.645h22.742
		c0.395,0,0.784-0.019,1.168-0.055c0.768-0.073,1.514-0.217,2.23-0.424c0.716-0.208,1.401-0.479,2.049-0.806
		s1.258-0.712,1.822-1.146s1.083-0.917,1.549-1.443c0.699-0.789,1.278-1.672,1.711-2.627c0.578-1.274,0.898-2.674,0.898-4.144V240
		V130C362.742,114.089,353.451,100.35,340,93.907z"/>
	<path id="XMLID_25_" style="fill:#6E7575;" d="M108.012,425.476L112.258,400v-20h50v20l4.246,25.476
		C169.516,443.548,155.58,460,137.258,460l0,0C118.937,460,105,443.548,108.012,425.476z"/>
	<path id="XMLID_85_" style="fill:#505960;" d="M108.012,425.476L112.258,400v-20h26.915v20l-4.246,25.476
		c-2.21,13.261,4.711,25.641,15.789,31.297c-4.019,2.052-8.58,3.227-13.457,3.227C118.937,460,105,443.548,108.012,425.476z"/>
	<path id="XMLID_86_" style="fill:#2D2D2D;" d="M176.302,424.266c-10.824,3.675-24.282,5.882-39.044,5.882l0,0
		c-14.762,0-28.22-2.207-39.044-5.882L99.169,420h2.313h6.119v-20.347c-4.272-1.138-7.424-5.022-7.424-9.653L70,339.575
		L98.216,121.3c2.564-15.808,20.617-31.3,40.035-31.3h31.927v300c0,2.924-1.262,5.546-3.263,7.375V420h6.119h2.313L176.302,424.266z
		"/>
	<path id="XMLID_477_" style="fill:#3D4347;" d="M137.258,90h40v150v169.355c0,5.879-5.117,10.645-11.428,10.645h-57.143
		c-6.312,0-11.428-4.766-11.428-10.645V240V130C97.258,107.909,115.167,90,137.258,90z"/>
	<path id="XMLID_12_" style="fill:#505960;" d="M154.516,90h22.742v150v169.355c0,5.879-5.117,10.645-11.428,10.645h-22.742
		c6.312,0,11.428-4.766,11.428-10.645V240V90z"/>
	<path id="XMLID_107_" style="fill:#2D2D2D;" d="M340,95.465V120c0,60.751-49.249,110-110,110s-110-49.249-110-110V95.465
		C125.205,92.001,131.434,90,138.073,90h183.853C328.566,90,334.795,92.001,340,95.465z"/>
	<path id="XMLID_500_" style="fill:#343638;" d="M137.258,90h40v126.551C143.139,197.873,120,161.64,120,120V93.907
		C125.225,91.404,131.077,90,137.258,90z"/>
	<path id="XMLID_24_" style="fill:#3D4347;" d="M177.258,90v126.551c-8.287-4.537-15.925-10.11-22.742-16.544V90H177.258z"/>
	<path id="XMLID_2046_" style="fill:#343638;" d="M322.742,90h-40v126.551C316.861,197.873,340,161.64,340,120V93.907
		C334.775,91.404,328.923,90,322.742,90z"/>
	<path id="XMLID_91_" style="fill:#2D2D2D;" d="M232.541,200h-5.083c-45.112,0-80.016-39.539-74.421-84.303l10.356-82.849
		C165.74,14.083,181.692,0,200.604,0h58.791c18.912,0,34.865,14.083,37.21,32.849l10.356,82.849
		C312.558,160.461,277.654,200,232.541,200z"/>
	<path id="XMLID_5_" style="fill:#434C54;" d="M153.038,115.697l2.582-20.659C158.122,75.021,175.138,60,195.311,60h4.084
		c7.314,0,14.183,2.108,19.995,5.777c6.445,4.07,14.774,4.07,21.219,0C246.421,62.108,253.29,60,260.604,60h4.084
		c20.173,0,37.189,15.021,39.691,35.039l2.582,20.659c5.597,44.763-29.307,84.302-74.42,84.302h-5.083
		C182.346,200,147.442,160.461,153.038,115.697z"/>
	<path id="XMLID_232_" style="fill:#505960;" d="M260,170v20h-60v-20l10-60V90h40v20L260,170z"/>
	<path id="XMLID_841_" style="fill:#2D2D2D;" d="M230,140h-5c-2.761,0-5-2.239-5-5v-5C225.523,130,230,134.477,230,140z M230,140h5
		c2.761,0,5-2.239,5-5v-5C234.477,130,230,134.477,230,140z"/>
	<path id="XMLID_486_" style="fill:#3E454C;" d="M292.786,169.667C279.198,187.967,257.425,200,232.541,200h-5.083
		c-24.883,0-46.657-12.033-60.245-30.333L292.786,169.667L292.786,169.667z"/>
	<path id="XMLID_503_" style="fill:#2E3133;" d="M276.879,169.667c-11.828,12.319-28.452,20-46.879,20s-35.051-7.681-46.879-20
		H276.879z"/>
	<path id="XMLID_1031_" style="fill:#AE8F99;" d="M264.624,169.667c-10.023,6.33-21.892,10-34.624,10s-24.601-3.67-34.624-10
		H264.624z"/>
	<path id="XMLID_482_" style="fill:#2E3133;" d="M266.703,110h-73.407c-4.804,0-8.52-4.21-7.925-8.977l0,0
		C186.873,89.013,197.083,80,209.187,80h2.45c4.389,0,8.51,1.265,11.997,3.466c3.891,2.458,8.84,2.458,12.731,0
		c3.487-2.202,7.609-3.466,11.997-3.466h2.451c12.104,0,22.313,9.013,23.815,21.023l0,0C275.224,105.79,271.507,110,266.703,110z"/>
	<path id="XMLID_26_" style="fill:#666C6D;" d="M220,95c0,2.761-2.239,5-5,5s-5-2.239-5-5s2.239-5,5-5S220,92.239,220,95z"/>
	<path id="XMLID_87_" style="fill:#666C6D;" d="M245,90c-2.761,0-5,2.239-5,5s2.239,5,5,5s5-2.239,5-5S247.761,90,245,90z"/>
</g>
<g>
</g>
<g>
</g>
<g>
</g>
<g>
</g>
<g>
</g>
<g>
</g>
<g>
</g>
<g>
</g>
<g>
</g>
<g>
</g>
<g>
</g>
<g>
</g>
<g>
</g>
<g>
</g>
<g>
</g>
</svg>
