<?xml version="1.0" encoding="iso-8859-1"?>
<!-- Generator: Adobe Illustrator 19.0.0, SVG Export Plug-In . SVG Version: 6.00 Build 0)  -->
<svg version="1.1" id="Capa_1" xmlns="http://www.w3.org/2000/svg" xmlns:xlink="http://www.w3.org/1999/xlink" x="0px" y="0px"
	 viewBox="0 0 464 464" style="enable-background:new 0 0 464 464;" xml:space="preserve">
<g>
	<path style="fill:#FFB996;" d="M321.153,301.718l-0.743-0.248c-0.141-0.047-0.274-0.093-0.413-0.14l0.61,0.813
		C320.784,301.994,320.965,301.851,321.153,301.718z"/>
	<polygon style="fill:#FFB996;" points="232,328 231.905,328.054 232.095,328.054 	"/>
	<path style="fill:#FFB996;" d="M166.297,284.198L232,328l65.703-43.802c1.921-1.281,4.203-1.617,6.297-1.117v-15.924
		C283.934,285.265,258.985,296,231.945,296c-26.991,0-51.899-10.695-71.945-28.743v15.824
		C162.093,282.581,164.375,282.917,166.297,284.198z"/>
	<path style="fill:#FFB996;" d="M327.552,313.703L328,312l-1.658,1.989C326.757,313.891,327.16,313.795,327.552,313.703z"/>
	<path style="fill:#FFEBE1;" d="M327.552,313.703c-0.392,0.092-0.795,0.188-1.209,0.286L288,360v3.11
		c0,5.947-6.258,9.815-11.578,7.156l-29.273-14.637c-1.314,2.622-4.018,4.425-7.149,4.425h-16c-3.132,0-5.836-1.804-7.149-4.425
		l-29.273,14.637c-5.319,2.659-11.578-1.208-11.578-7.156V360l-40-48l40,152h112L327.552,313.703z M232,380
		c3.571,0,6.467,2.895,6.467,6.467c0,3.571-2.895,6.467-6.467,6.467c-3.571,0-6.467-2.896-6.467-6.467
		C225.533,382.895,228.429,380,232,380z M232,405.867c3.571,0,6.467,2.895,6.467,6.467c0,3.571-2.895,6.466-6.467,6.466
		c-3.571,0-6.467-2.895-6.467-6.466C225.533,408.762,228.429,405.867,232,405.867z M232,444.667c-3.571,0-6.467-2.895-6.467-6.466
		c0-3.572,2.895-6.467,6.467-6.467c3.571,0,6.467,2.895,6.467,6.467C238.467,441.771,235.571,444.667,232,444.667z"/>
	<path style="fill:#FFD7B4;" d="M247.742,294.61c-45.112-9.301-79.96-69.523-79.96-142.61c0-17.579,0-37.23,0-51.844
		c-13.966-6.508-22.649-11.499-23.673-12.093c-0.015-0.008-0.013-0.007-0.024-0.014C144.034,88.02,144,88,144,88l-13.247,60.823
		c-1.342,5.367-7.596,7.785-12.199,4.716l-7.982-5.321c-2.191-1.46-3.909-3.457-5.04-5.748C99.743,148.313,96,157.572,96,168
		c0,17.124,10.087,31.105,22.771,31.958c7.961,27.053,22.461,50.401,41.229,67.298C180.047,285.305,204.955,296,231.945,296
		C237.313,296,242.56,295.43,247.742,294.61z"/>
	<path style="fill:#6E4141;" d="M192,175.836v-8c0-4.418-3.582-8-8-8s-8,3.582-8,8v8c0,4.418,3.582,8,8,8S192,180.254,192,175.836z"
		/>
	<path style="fill:#6E4141;" d="M280,183.836c4.418,0,8-3.582,8-8v-8c0-4.418-3.582-8-8-8s-8,3.582-8,8v8
		C272,180.254,275.582,183.836,280,183.836z"/>
	<path style="fill:#FFFFFF;" d="M276.535,237.731c5.214-5.072,1.809-13.896-5.466-13.896h-78.139c-7.274,0-10.68,8.823-5.466,13.896
		c11.51,11.198,27.204,18.104,44.535,18.104C249.331,255.836,265.025,248.93,276.535,237.731z"/>
	<path style="fill:#FFE6D2;" d="M353.427,148.218l-7.982,5.321c-4.603,3.068-10.857,0.651-12.199-4.716L328,120l-32-16
		c0,18.897,0,39.36,0,39.36c-19.219-10.296-35.102-22.616-48-34.856c0,10.364,0,19.333,0,19.333
		c-32.504-7.193-61.236-18.834-80.219-27.68c0,14.613,0,34.265,0,51.844c0,73.087,34.848,133.31,79.96,142.61
		c-5.182,0.82-10.428,1.39-15.796,1.39c27.04,0,51.989-10.735,72.055-28.844c18.714-16.889,33.173-40.195,41.119-67.194
		C357.854,199.183,368,185.173,368,168c0-10.428-3.743-19.688-9.533-25.53C357.336,144.761,355.618,146.757,353.427,148.218z
		 M272,167.836c0-4.418,3.582-8,8-8s8,3.582,8,8v8c0,4.418-3.582,8-8,8s-8-3.582-8-8V167.836z M176,175.836v-8c0-4.418,3.582-8,8-8
		s8,3.582,8,8v8c0,4.418-3.582,8-8,8S176,180.254,176,175.836z M192.931,223.836h78.139c7.274,0,10.68,8.823,5.466,13.896
		c-11.51,11.198-27.204,18.104-44.535,18.104c-17.331,0-33.025-6.906-44.535-18.104
		C182.251,232.659,185.656,223.836,192.931,223.836z"/>
	<path style="fill:#8C5046;" d="M166.53,1.939c0.197-0.044,0.393-0.091,0.59-0.133C166.923,1.848,166.727,1.895,166.53,1.939z"/>
	<path style="fill:#8C5046;" d="M168,100.254c-14.061-6.542-22.838-11.581-23.892-12.191c1.024,0.595,9.707,5.585,23.673,12.093
		c18.982,8.845,47.715,20.486,80.219,27.68c0,0,0-8.969,0-19.333c12.898,12.241,28.781,24.561,48,34.856c0,0,0-20.462,0-39.36l32,16
		l5.247,28.823c1.342,5.367,7.596,7.785,12.199,4.716l7.982-5.321c2.191-1.46,3.909-3.457,5.04-5.748
		c0.99-2.003,1.533-4.231,1.533-6.534V80c0-44.183-35.817-80-80-80h-96c-5.483,0-10.829,0.573-16,1.63V100.254z"/>
	<path style="fill:#8C5046;" d="M144.084,88.049C144.039,88.023,144,88,144,88S144.034,88.02,144.084,88.049z"/>
	<path style="fill:#6E4141;" d="M110.573,148.218l7.982,5.321c4.603,3.068,10.857,0.651,12.199-4.716L144,88
		c0,0,0.039,0.023,0.084,0.049c0.012,0.007,0.01,0.006,0.024,0.014c1.054,0.611,9.831,5.649,23.892,12.191V1.63V1.607
		c-0.295,0.06-0.585,0.135-0.879,0.199c-0.198,0.042-0.393,0.089-0.59,0.133C130.753,9.912,104,41.821,104,80v55.937
		c0,2.302,0.543,4.53,1.533,6.534C106.664,144.761,108.382,146.757,110.573,148.218z"/>
	<path style="fill:#6B3C41;" d="M136,312l7.392-9.856c-1.953-1.654-4.68-2.348-7.346-1.585l-61.232,17.495
		C54.207,323.941,40,342.775,40,364.207V448c0,8.836,7.164,16,16,16h60v-32.355c0-16.027-6.242-31.094-17.574-42.426l-51.699-49.28
		c1.373-2.333,2.94-4.522,4.683-6.589l52.605,50.146C116.926,396.406,124,413.48,124,431.645V464h52L136,312z"/>
	<path style="fill:#6B3C41;" d="M415.232,336.561c0.255,0.358,0.497,0.725,0.741,1.089
		C415.73,337.285,415.485,336.92,415.232,336.561z"/>
	<path style="fill:#6B3C41;" d="M416.475,338.404c0.039,0.061,0.076,0.124,0.114,0.185
		C416.55,338.528,416.514,338.465,416.475,338.404z"/>
	<path style="fill:#6B3C41;" d="M417.416,339.947l-51.691,49.272c-11.332,11.332-17.574,26.398-17.574,42.426V464H408
		c8.836,0,16-7.164,16-16v-83.793C424,355.451,421.626,347.13,417.416,339.947z"/>
	<path style="fill:#6B3C41;" d="M360.136,383.496l52.605-50.146c0.862,1.022,1.68,2.075,2.454,3.16
		c-6.161-8.716-15.202-15.369-26.009-18.457l-61.232-17.495c-2.426-0.693-4.902-0.183-6.801,1.16
		c-0.188,0.133-0.369,0.276-0.546,0.426L328,312l-0.448,1.703L288,464h52.151v-32.355
		C340.151,413.48,347.226,396.406,360.136,383.496z"/>
	<path style="fill:#FFE1C8;" d="M136,312l40,48v-35.001c0-5.947,6.259-9.815,11.578-7.155l29.273,14.636
		c1.314-2.622,4.018-4.425,7.149-4.425h7.905L232,328l-65.703-43.802c-1.921-1.281-4.204-1.617-6.297-1.117
		c-1.756,0.419-3.379,1.424-4.541,2.974l-12.067,16.089L136,312z"/>
	<path style="fill:#FFE1C8;" d="M297.703,284.198L232,328l0.095,0.054H240c3.132,0,5.836,1.804,7.149,4.425l29.273-14.636
		c5.319-2.66,11.578,1.208,11.578,7.155V360l38.342-46.011L328,312l-7.392-9.856l-0.61-0.813l-11.457-15.276
		c-1.162-1.549-2.785-2.554-4.541-2.974C301.907,282.581,299.625,282.917,297.703,284.198z"/>
	<path style="fill:#D2504B;" d="M216,336.054c0-1.287,0.311-2.498,0.851-3.575l-29.273-14.636
		c-5.319-2.66-11.578,1.208-11.578,7.155V360v3.11c0,5.947,6.259,9.815,11.578,7.156l29.273-14.637
		c-0.54-1.077-0.851-2.288-0.851-3.575V336.054z"/>
	<path style="fill:#D2504B;" d="M276.422,317.843l-29.273,14.636c0.54,1.077,0.851,2.288,0.851,3.575v16
		c0,1.287-0.311,2.498-0.851,3.575l29.273,14.637c5.319,2.659,11.578-1.208,11.578-7.156V360v-35.001
		C288,319.052,281.742,315.184,276.422,317.843z"/>
	<path style="fill:#BE3C3C;" d="M248,336.054c0-1.287-0.311-2.498-0.851-3.575c-1.314-2.622-4.018-4.425-7.149-4.425h-7.905h-0.19
		H224c-3.132,0-5.836,1.804-7.149,4.425c-0.54,1.077-0.851,2.288-0.851,3.575v16c0,1.287,0.311,2.498,0.851,3.575
		c1.314,2.622,4.018,4.425,7.149,4.425h16c3.132,0,5.836-1.804,7.149-4.425c0.54-1.077,0.851-2.288,0.851-3.575V336.054z"/>
	<path style="fill:#7D5050;" d="M104.016,383.496L51.41,333.35c-1.743,2.067-3.31,4.257-4.683,6.589l51.699,49.28
		C109.758,400.551,116,415.617,116,431.645V464h8v-32.355C124,413.48,116.926,396.406,104.016,383.496z"/>
	<path style="fill:#7D5050;" d="M365.726,389.219l51.691-49.272l0.008-0.008c-0.269-0.457-0.551-0.904-0.835-1.35
		c-0.039-0.061-0.075-0.124-0.114-0.185c-0.163-0.254-0.333-0.503-0.501-0.754c-0.245-0.365-0.487-0.731-0.741-1.089
		c-0.012-0.017-0.025-0.034-0.037-0.051c-0.774-1.085-1.592-2.138-2.454-3.16l-52.605,50.146
		c-12.91,12.91-19.984,29.984-19.984,48.148V464h8v-32.355C348.151,415.617,354.393,400.551,365.726,389.219z"/>
	<circle style="fill:#FFD7B4;" cx="232" cy="438.2" r="6.467"/>
	<circle style="fill:#FFD7B4;" cx="232" cy="412.333" r="6.467"/>
	<circle style="fill:#FFD7B4;" cx="232" cy="386.467" r="6.467"/>
</g>
<g>
</g>
<g>
</g>
<g>
</g>
<g>
</g>
<g>
</g>
<g>
</g>
<g>
</g>
<g>
</g>
<g>
</g>
<g>
</g>
<g>
</g>
<g>
</g>
<g>
</g>
<g>
</g>
<g>
</g>
</svg>
