<?xml version="1.0" encoding="iso-8859-1"?>
<!-- Generator: Adobe Illustrator 18.0.0, SVG Export Plug-In . SVG Version: 6.00 Build 0)  -->
<!DOCTYPE svg PUBLIC "-//W3C//DTD SVG 1.1//EN" "http://www.w3.org/Graphics/SVG/1.1/DTD/svg11.dtd">
<svg version="1.1" id="Capa_1" xmlns="http://www.w3.org/2000/svg" xmlns:xlink="http://www.w3.org/1999/xlink" x="0px" y="0px"
	 viewBox="0 0 297.5 297.5" style="enable-background:new 0 0 297.5 297.5;" xml:space="preserve">
<g>
	<g id="XMLID_35_">
		<g>
			<path d="M278.278,157.39c0.98,2.94,0.49,6.17-1.33,8.68c-1.81,2.51-4.71,4-7.81,4h-2.53l11.67,35.01
				c0.98,2.94,0.49,6.17-1.33,8.68c-1.81,2.51-4.71,4-7.81,4h-2.53l11.67,35.01c0.98,2.94,0.49,6.17-1.33,8.68
				c-1.81,2.52-4.71,4.01-7.81,4.01h-14.21v22.16c0,5.32-4.32,9.63-9.64,9.63c-5.32,0-9.63-4.31-9.63-9.63v-22.16h-171.5v22.16
				c0,5.32-4.31,9.63-9.63,9.63c-5.33,0-9.64-4.31-9.64-9.63v-22.16h-14.21c-3.1,0-6.01-1.49-7.82-4.01
				c-1.81-2.51-2.3-5.74-1.32-8.68l11.67-35.01h-2.53c-3.1,0-6.01-1.49-7.82-4c-1.81-2.51-2.3-5.74-1.32-8.68l11.67-35.01h-2.53
				c-3.1,0-6.01-1.49-7.82-4c-1.81-2.51-2.3-5.74-1.32-8.68l15.9-47.69c0.84-2.52,2.68-4.59,5.1-5.7l103.33-47.7
				c2.56-1.18,5.52-1.18,8.08,0l35.06,16.19c4.3-3.73,10.15-5.08,16.38-4.2c3.72-4.37,9.09-7.75,15.48-9.21
				c6.6-1.5,13.34-0.8,18.99,1.99c6.03,2.98,10.29,8.16,11.68,14.23c1.87,8.19-1.7,16.54-8.54,22.11l14.28,6.59
				c2.41,1.11,4.26,3.18,5.1,5.7L278.278,157.39z M255.768,150.8l-10.35-31.05l-12.86-5.94c-0.33,0.43-0.68,0.85-1.06,1.25
				c-3.59,3.79-8.54,5.63-13.99,5.63c-0.02,0-0.03,0-0.05,0c-1.59,4.88-4.35,9.19-8.04,12.41c-4.16,3.63-9.23,5.58-14.31,5.58
				c-1.11,0-2.21-0.09-3.31-0.28c-12.31-2.11-20.32-15.45-17.87-29.73c1.14-6.66,4.39-12.62,9.14-16.76c0.1-0.1,0.22-0.18,0.33-0.27
				c-0.04-0.19-0.08-0.38-0.12-0.57l-33.37-15.41l-95.51,44.09l-10.35,31.05H255.768z M255.768,198.49l-9.47-28.42H53.518
				l-9.47,28.42H255.768z M255.768,246.19l-9.47-28.43H53.518l-9.47,28.43H255.768z M232.588,88.25c4.14-2.4,6.63-6.32,5.8-9.95
				c-0.66-2.86-3.1-4.44-4.49-5.13c-1.83-0.9-3.99-1.37-6.24-1.37c-1.25,0-2.52,0.14-3.78,0.43c-1.6,0.37-3.09,0.96-4.42,1.7
				c1.87,1.25,3.68,2.7,5.41,4.34C228.038,81.27,230.658,84.67,232.588,88.25z M222.408,106.45c1.41-1.5,1.81-4.14,1.1-7.27
				c-0.06-0.23-0.13-0.46-0.2-0.7l-8.8,9.3C217.948,108.52,220.878,108.06,222.408,106.45z M205.408,103.38l13-13.73
				c-0.67-0.79-1.38-1.56-2.15-2.29c-0.18-0.16-0.36-0.32-0.53-0.48l-13.22,13.96c0.17,0.17,0.33,0.35,0.5,0.52
				C203.798,102.1,204.598,102.76,205.408,103.38z M196.878,92.77l10.48-11.07c-2.02-0.74-3.94-1.11-5.62-1.11
				c-2.09,0-3.81,0.57-4.87,1.68C194.968,84.28,194.958,88.34,196.878,92.77z M200.548,122.94c1.61-1.4,2.9-3.34,3.77-5.53
				c-3.44-1.69-6.81-4.02-9.92-6.96c-1.84-1.75-3.47-3.6-4.89-5.51c-1.11,1.75-1.91,3.82-2.29,6.02
				c-1.17,6.83,1.97,13.31,6.86,14.15C196.978,125.6,199.378,123.96,200.548,122.94z"/>
			<path style="fill:#F4AF30;" d="M245.418,119.75l10.35,31.05H44.048l10.35-31.05l95.51-44.09l33.37,15.41
				c0.04,0.19,0.08,0.38,0.12,0.57c-0.11,0.09-0.23,0.17-0.33,0.27c-4.75,4.14-8,10.1-9.14,16.76
				c-2.45,14.28,5.56,27.62,17.87,29.73c1.1,0.19,2.2,0.28,3.31,0.28c5.08,0,10.15-1.95,14.31-5.58c3.69-3.22,6.45-7.53,8.04-12.41
				c0.02,0,0.03,0,0.05,0c5.45,0,10.4-1.84,13.99-5.63c0.38-0.4,0.73-0.82,1.06-1.25L245.418,119.75z"/>
			<polygon style="fill:#F4AF30;" points="246.298,170.07 255.768,198.49 44.048,198.49 53.518,170.07 			"/>
			<polygon style="fill:#F4AF30;" points="246.298,217.76 255.768,246.19 44.048,246.19 53.518,217.76 			"/>
			<path style="fill:#FFEC00;" d="M238.388,78.3c0.83,3.63-1.66,7.55-5.8,9.95c-1.93-3.58-4.55-6.98-7.72-9.98
				c-1.73-1.64-3.54-3.09-5.41-4.34c1.33-0.74,2.82-1.33,4.42-1.7c1.26-0.29,2.53-0.43,3.78-0.43c2.25,0,4.41,0.47,6.24,1.37
				C235.288,73.86,237.728,75.44,238.388,78.3z"/>
			<path style="fill:#FFEC00;" d="M223.508,99.18c0.71,3.13,0.31,5.77-1.1,7.27c-1.53,1.61-4.46,2.07-7.9,1.33l8.8-9.3
				C223.378,98.72,223.448,98.95,223.508,99.18z"/>
			<path style="fill:#FFEC00;" d="M218.408,89.65l-13,13.73c-0.81-0.62-1.61-1.28-2.4-2.02c-0.17-0.17-0.33-0.35-0.5-0.52
				l13.22-13.96c0.17,0.16,0.35,0.32,0.53,0.48C217.028,88.09,217.738,88.86,218.408,89.65z"/>
			<path style="fill:#FFEC00;" d="M207.358,81.7l-10.48,11.07c-1.92-4.43-1.91-8.49-0.01-10.5c1.06-1.11,2.78-1.68,4.87-1.68
				C203.418,80.59,205.338,80.96,207.358,81.7z"/>
			<path style="fill:#FFEC00;" d="M204.318,117.41c-0.87,2.19-2.16,4.13-3.77,5.53c-1.17,1.02-3.57,2.66-6.47,2.17
				c-4.89-0.84-8.03-7.32-6.86-14.15c0.38-2.2,1.18-4.27,2.29-6.02c1.42,1.91,3.05,3.76,4.89,5.51
				C197.508,113.39,200.878,115.72,204.318,117.41z"/>
			<path d="M98.328,47.64c1.51,6.59,0.8,13.33-1.98,18.99c-2.98,6.03-8.17,10.28-14.23,11.67c-1.47,0.33-2.93,0.49-4.39,0.49
				c-9.04,0-17.61-6.21-21.75-15.67c-0.2,0-0.4,0.01-0.6,0.01c-5.08,0-9.65-1.67-13.02-4.87c-3.8-3.59-5.64-8.57-5.63-14.03
				c-4.88-1.6-9.2-4.36-12.41-8.05c-4.43-5.06-6.36-11.49-5.31-17.62c2.12-12.3,15.45-20.32,29.73-17.87
				c6.67,1.14,12.62,4.39,16.77,9.14c0.09,0.11,0.17,0.22,0.27,0.33c6.82-1.37,13.34-0.02,17.98,4.37
				c4.61,4.37,6.33,10.77,5.36,17.61C93.498,35.87,96.868,41.24,98.328,47.64z M84.248,60.66c1.4-2.84,1.74-6.49,0.93-10.02
				c-0.36-1.6-0.95-3.09-1.69-4.42c-1.26,1.86-2.7,3.68-4.34,5.41c-3.01,3.18-6.41,5.8-10,7.73c2.4,4.14,6.34,6.62,9.96,5.79
				C81.978,64.49,83.558,62.05,84.248,60.66z M75.708,34.12c1.67-4.53,1.44-8.59-0.57-10.49c-1-0.95-2.53-1.43-4.35-1.43
				s-3.94,0.47-6.15,1.43L75.708,34.12z M70.528,42.48l-13.96-13.22c-0.17,0.17-0.34,0.34-0.51,0.52c-0.74,0.78-1.41,1.58-2.02,2.39
				l13.73,13c0.79-0.67,1.56-1.38,2.28-2.15C70.218,42.85,70.368,42.66,70.528,42.48z M58.228,50.27c0.23-0.06,0.47-0.13,0.7-0.2
				l-9.29-8.8c-0.75,3.44-0.29,6.37,1.33,7.9C52.458,50.58,55.108,50.98,58.228,50.27z M46.958,21.16c1.75-1.84,3.59-3.46,5.5-4.88
				c-1.75-1.11-3.8-1.92-6-2.3c-0.97-0.16-1.93-0.24-2.87-0.24c-5.69,0-10.56,2.91-11.28,7.1c-0.5,2.9,1.14,5.3,2.17,6.47
				c1.4,1.61,3.33,2.9,5.53,3.76C41.698,27.64,44.018,24.27,46.958,21.16z"/>
			<path style="fill:#FFEC00;" d="M85.178,50.64c0.81,3.53,0.47,7.18-0.93,10.02c-0.69,1.39-2.27,3.83-5.14,4.49
				c-3.62,0.83-7.56-1.65-9.96-5.79c3.59-1.93,6.99-4.55,10-7.73c1.64-1.73,3.08-3.55,4.34-5.41
				C84.228,47.55,84.818,49.04,85.178,50.64z"/>
			<path style="fill:#FFEC00;" d="M75.138,23.63c2.01,1.9,2.24,5.96,0.57,10.49l-11.07-10.49c2.21-0.96,4.33-1.43,6.15-1.43
				S74.138,22.68,75.138,23.63z"/>
			<path style="fill:#FFEC00;" d="M56.568,29.26l13.96,13.22c-0.16,0.18-0.31,0.37-0.48,0.54c-0.72,0.77-1.49,1.48-2.28,2.15
				l-13.73-13c0.61-0.81,1.28-1.61,2.02-2.39C56.228,29.6,56.398,29.43,56.568,29.26z"/>
			<path style="fill:#FFEC00;" d="M58.928,50.07c-0.23,0.07-0.47,0.14-0.7,0.2c-3.12,0.71-5.77,0.31-7.26-1.1
				c-1.62-1.53-2.08-4.46-1.33-7.9L58.928,50.07z"/>
			<path style="fill:#FFEC00;" d="M52.458,16.28c-1.91,1.42-3.75,3.04-5.5,4.88c-2.94,3.11-5.26,6.48-6.95,9.91
				c-2.2-0.86-4.13-2.15-5.53-3.76c-1.03-1.17-2.67-3.57-2.17-6.47c0.72-4.19,5.59-7.1,11.28-7.1c0.94,0,1.9,0.08,2.87,0.24
				C48.658,14.36,50.708,15.17,52.458,16.28z"/>
		</g>
		<g>
		</g>
	</g>
</g>
<g>
</g>
<g>
</g>
<g>
</g>
<g>
</g>
<g>
</g>
<g>
</g>
<g>
</g>
<g>
</g>
<g>
</g>
<g>
</g>
<g>
</g>
<g>
</g>
<g>
</g>
<g>
</g>
<g>
</g>
</svg>
