<?xml version="1.0" encoding="iso-8859-1"?>
<!-- Generator: Adobe Illustrator 18.0.0, SVG Export Plug-In . SVG Version: 6.00 Build 0)  -->
<!DOCTYPE svg PUBLIC "-//W3C//DTD SVG 1.1//EN" "http://www.w3.org/Graphics/SVG/1.1/DTD/svg11.dtd">
<svg version="1.1" id="Capa_1" xmlns="http://www.w3.org/2000/svg" xmlns:xlink="http://www.w3.org/1999/xlink" x="0px" y="0px"
	 viewBox="0 0 413.918 413.918" style="enable-background:new 0 0 413.918 413.918;" xml:space="preserve">
<g>
	<path d="M404.537,221.099c5.89,2.67,10.29,10.29,9.22,16.33c-1.03,5.74-6.51,7.34-11.55,3.36c-7.05-5.57-10.93-5.39-17.41,0.32
		c-4.58,4.05-9.76,7.45-14.14,11.69c-7.47,7.25-15.02,14.51-21.61,22.52c-10.79,13.1-20.09,27.49-31.39,40.09
		c-14.04,15.66-31.88,24.57-53.61,24.29c-16.27-0.21-32.55-0.08-48.83-0.05c-11.67,0.02-23.16,1.62-33.8,6.51
		c-26.49,12.17-51.73,8.99-75.02-7.15c-17.77-12.32-34.55-26.14-51.32-39.84c-11.31-9.25-22.73-17.87-38.23-21.16
		c-7.64,6.32-14.18,5.14-16.59-3c-0.53-1.77-0.24-4.57,0.86-5.92c15.31-18.77,27.78-39.39,39.17-60.64
		c12.48-23.3,22.49-47.71,29.24-73.35c3.84-14.6,10.46-27.66,20.68-38.84c9.45-10.33,17.4-11.13,29.64-4.06
		c7.47,4.32,15.41,7.92,23.43,11.15c9.94,4.01,20.07,4.41,30.73,1.6c22.38-5.91,42.62-14.97,59.62-31.43
		c16.48-15.96,24.94-17.98,50.23-2.83c14.02,8.4,21.65,22.4,28.2,36.36c15.42,32.84,37.33,60.98,61.14,87.78
		c7.39,8.32,16.51,15.12,24.96,22.47C399.997,218.899,402.287,220.089,404.537,221.099z M389.467,224.999
		c-1.08-1.14-1.97-2.23-3.02-3.15c-35.82-31.35-64.06-68.38-84.97-111.22c-6.13-12.54-13.02-25.01-25.66-32.95
		c-12.39-7.79-16.84-7.82-27.72,1.54c-1.92,1.66-3.92,3.23-5.69,5.03c-16.8,17.19-38.21,25.38-60.71,31.84
		c-16.13,4.62-31.55,3.6-46.31-4.01c-6.69-3.46-12.94-7.93-18.99-12.47c-9.43-7.09-14.83-6.95-20.86,3.38
		c-5.79,9.91-11.23,20.4-14.55,31.32c-13.37,44.02-32.76,84.89-60.53,121.67c-1.77,2.33-3.26,4.88-6.2,9.31
		c6.97-3.06,11.84-4.52,15.96-7.15c10.96-7,21.48-14.7,32.44-21.71c3.49-2.23,4.61-4.95,5.34-8.7c0.85-4.35,2.61-8.52,3.97-12.76
		c0.73,0.18,1.46,0.36,2.19,0.55c-0.72,4.31-1.43,8.62-2.15,12.93c2.73-1.57,4.16-3.76,5.56-5.97c1.58-2.47,3.15-4.95,4.71-7.43
		c0.2,1.81,0.42,3.68,0.74,6.5c10.76-8.96,9.13-22.68,17.23-31.9c-1.55,6.67-3.09,13.34-4.86,20.96
		c11.17-5.76,19.37-19.64,33.36-7.56c3.5-9.31,6.74-17.93,9.98-26.56c0.66,0.2,1.31,0.4,1.96,0.6c-2.32,9.53-4.65,19.06-6.92,28.39
		c2.51,1.76,3.92,2.89,5.46,3.79c1.68,0.98,3.48,1.74,5.36,2.66c6.51-24.09,8.09-27.65,15.28-33.55
		c-3.67,12.45-7.1,24.04-10.71,36.28c3.5,1.17,5.99,2,8.16,2.72c4.85-11.17,9.34-21.5,13.83-31.83c0.75,0.3,1.49,0.59,2.24,0.88
		c-3.74,10.69-7.47,21.38-11.55,33.06c4.29,0.72,7.26,1.22,10.35,1.74c4.13-12.01,5.97-24.06,14.8-33.35
		c-3.13,11.31-6.25,22.61-9.62,34.78c4.25,0,7.3,0,10.23,0c5.35-12.86,7.85-26.34,14.46-38.14c0.83,0.27,1.67,0.53,2.5,0.8
		c-3.42,12.29-6.84,24.59-10.25,36.83c5.37,2.49,7.75,0.44,9.5-4.09c3.5-9.06,7.4-17.98,11.13-26.95c0.97,0.36,1.93,0.72,2.9,1.08
		c-3,9.33-6,18.66-9,28c5.94,2.05,7.99-1.22,9.6-5.14c2.2-5.34,4.24-10.76,6.58-16.04c0.68-1.52,2.15-2.69,3.26-4.03
		c0.51,0.31,1.01,0.61,1.52,0.91c-2.05,6.68-4.1,13.36-6.67,21.71c11.59-3.42,10-14.81,17.54-21.4c-2.04,6.08-3.55,10.57-5.56,16.56
		c13.29-5.33,24.41-10.97,33.14-20.33c6.13-6.58,12.23-12.47,21.82-8.8c2.83-5.03,5.23-9.31,7.64-13.58
		c0.61,0.35,1.23,0.7,1.84,1.05c-1.73,4.76-3.46,9.51-5.19,14.27c0.81,0.51,1.62,1.01,2.43,1.51c3.64-3.53,7.28-7.06,10.92-10.59
		c0.4,0.37,0.8,0.75,1.19,1.13c-1.91,3.67-3.83,7.35-5.68,10.9C332.167,213.969,367.867,233.439,389.467,224.999z M371.387,242.129
		c1.98-1.07,3.46-3.05,4.26-3.78c-11.41-3.71-23.42-5.91-33.72-11.35c-13.96-7.37-26.8-16.97-39.77-26.11
		c-5.41-3.82-10.69-7.17-18.09-7.88c-12.69,18.32-31.72,28.08-51.82,35.55c-35.38,13.14-69.46,11.25-100.94-11.66
		c-3.43-2.5-7.31-4.39-9.51-5.68c-34.14,20.63-67.05,40.52-100.16,60.53c10.89,4.88,21.02,9.42,30.82,13.81
		c2.84-8.16,5.56-16,8.28-23.84c0.72,0.23,1.44,0.46,2.17,0.69c-1.8,7.28-3.39,14.63-5.48,21.83c-1.24,4.28-0.64,7.04,4.47,8.21
		c4.67-8.41,6.11-18.64,13.46-25.87c-1.69,7.35-4.21,14.37-6.68,21.41c-3.25,9.3-3.23,9.31,6.08,14.9
		c3.96-11.01,7.93-22.07,11.9-33.13c0.92,0.29,1.83,0.59,2.75,0.88c-3.58,12.24-7.16,24.48-10.73,36.68
		c4.21,3.17,7.55,5.69,11.46,8.63c4.51-11.83,5.13-23.9,13.74-32.79c-3.1,11.75-6.21,23.5-9.42,35.68c3.63,2.15,6.5,3.85,9.92,5.88
		c4.64-14.27,7.84-27.77,14.28-39.99c0.68,0.22,1.36,0.44,2.05,0.67c-3.85,14.42-7.7,28.85-11.61,43.52
		c3.75,1.54,6.3,2.59,9.29,3.81c2.45-7.01,4.66-13.45,6.96-19.86c2.27-6.31,4.62-12.58,6.94-18.86c0.74,0.25,1.48,0.51,2.22,0.77
		c-0.94,14.02-7.95,26.57-11.19,40.87c3.36,1.25,6.56,2.45,10.23,3.82c5.2-11.84,10.05-22.89,14.9-33.95
		c0.76,0.3,1.53,0.59,2.29,0.88c-3.68,11.37-7.37,22.73-11.29,34.84c3.72,0.43,6.06,0.71,8.04,0.94
		c5.11-12.2,9.94-23.73,14.77-35.27c1.02,0.35,2.04,0.69,3.06,1.03c-3.67,10.74-7.33,21.49-11.18,32.79
		c6.01,0.67,8.92-1.12,10.99-6.56c3.75-9.83,8.59-19.25,12.97-28.83c0.93,0.37,1.87,0.75,2.8,1.13
		c-3.58,9.73-7.15,19.47-10.84,29.52c8.22-0.36,11.97-4.34,14.19-10.87c2.26-6.67,5.38-13.05,8.12-19.56
		c0.78,0.27,1.55,0.53,2.32,0.8c-2.08,7.6-4.16,15.21-6.25,22.82c1,0.49,1.99,0.98,2.98,1.47c8.18-6.95,8.34-19.52,17.13-26.43
		c-2.6,7.38-5.2,14.75-7.81,22.18c9.29,1.15,9.34,1.17,12.75-5.96c4.18-8.76,8.27-17.57,13.45-28.58c0.5,14-7.56,22.97-9.74,33.76
		c7.13,0.12,7.23,0.16,9.02-3.55c2.94-6.08,5.74-12.23,8.6-18.36c0.57,0.21,1.14,0.41,1.71,0.62c-2.35,6.96-4.7,13.92-7.02,20.77
		c5.13,2.98,6.88,0.36,8.66-3.4c2.81-5.94,6.11-11.65,9.2-17.45c0.52,0.26,1.04,0.53,1.56,0.8c-2.91,6.73-5.82,13.45-9.35,21.61
		c8.28,0,15.04-0.33,21.75,0.06c17.55,1.02,31.86-6.2,43.76-18.04c11.51-11.46,22.34-23.65,32.87-36.03
		C347.847,261.019,357.697,249.549,371.387,242.129z"/>
	<path style="fill:#C1272D;" d="M386.447,221.849c1.05,0.92,1.94,2.01,3.02,3.15c-21.6,8.44-57.3-11.03-86.25-36.68
		c1.85-3.55,3.77-7.23,5.68-10.9c-0.39-0.38-0.79-0.76-1.19-1.13c-3.64,3.53-7.28,7.06-10.92,10.59c-0.81-0.5-1.62-1-2.43-1.51
		c1.73-4.76,3.46-9.51,5.19-14.27c-0.61-0.35-1.23-0.7-1.84-1.05c-2.41,4.27-4.81,8.55-7.64,13.58c-9.59-3.67-15.69,2.22-21.82,8.8
		c-8.73,9.36-19.85,15-33.14,20.33c2.01-5.99,3.52-10.48,5.56-16.56c-7.54,6.59-5.95,17.98-17.54,21.4
		c2.57-8.35,4.62-15.03,6.67-21.71c-0.51-0.3-1.01-0.6-1.52-0.91c-1.11,1.34-2.58,2.51-3.26,4.03c-2.34,5.28-4.38,10.7-6.58,16.04
		c-1.61,3.92-3.66,7.19-9.6,5.14c3-9.34,6-18.67,9-28c-0.97-0.36-1.93-0.72-2.9-1.08c-3.73,8.97-7.63,17.89-11.13,26.95
		c-1.75,4.53-4.13,6.58-9.5,4.09c3.41-12.24,6.83-24.54,10.25-36.83c-0.83-0.27-1.67-0.53-2.5-0.8
		c-6.61,11.8-9.11,25.28-14.46,38.14c-2.93,0-5.98,0-10.23,0c3.37-12.17,6.49-23.47,9.62-34.78c-8.83,9.29-10.67,21.34-14.8,33.35
		c-3.09-0.52-6.06-1.02-10.35-1.74c4.08-11.68,7.81-22.37,11.55-33.06c-0.75-0.29-1.49-0.58-2.24-0.88
		c-4.49,10.33-8.98,20.66-13.83,31.83c-2.17-0.72-4.66-1.55-8.16-2.72c3.61-12.24,7.04-23.83,10.71-36.28
		c-7.19,5.9-8.77,9.46-15.28,33.55c-1.88-0.92-3.68-1.68-5.36-2.66c-1.54-0.9-2.95-2.03-5.46-3.79c2.27-9.33,4.6-18.86,6.92-28.39
		c-0.65-0.2-1.3-0.4-1.96-0.6c-3.24,8.63-6.48,17.25-9.98,26.56c-13.99-12.08-22.19,1.8-33.36,7.56c1.77-7.62,3.31-14.29,4.86-20.96
		c-8.1,9.22-6.47,22.94-17.23,31.9c-0.32-2.82-0.54-4.69-0.74-6.5c0.06-0.09,0.11-0.18,0.17-0.27c0.06-0.29,0.12-0.59,0.19-0.88
		c1.4-2.42,2.81-4.84,4.22-7.25c-0.83-0.32-1.67-0.63-2.5-0.94c-0.58,2.74-1.15,5.46-1.72,8.19c-0.14,0.24-0.28,0.47-0.42,0.71
		c0,0,0.01,0,0.01,0.01c0.02,0.14,0.03,0.29,0.05,0.43c-1.56,2.48-3.13,4.96-4.71,7.43c-1.4,2.21-2.83,4.4-5.56,5.97
		c0.72-4.31,1.43-8.62,2.15-12.93c-0.73-0.19-1.46-0.37-2.19-0.55c-1.36,4.24-3.12,8.41-3.97,12.76c-0.73,3.75-1.85,6.47-5.34,8.7
		c-10.96,7.01-21.48,14.71-32.44,21.71c-4.12,2.63-8.99,4.09-15.96,7.15c2.94-4.43,4.43-6.98,6.2-9.31
		c27.77-36.78,47.16-77.65,60.53-121.67c3.32-10.92,8.76-21.41,14.55-31.32c6.03-10.33,11.43-10.47,20.86-3.38
		c6.05,4.54,12.3,9.01,18.99,12.47c14.76,7.61,30.18,8.63,46.31,4.01c22.5-6.46,43.91-14.65,60.71-31.84
		c1.77-1.8,3.77-3.37,5.69-5.03c10.88-9.36,15.33-9.33,27.72-1.54c12.64,7.94,19.53,20.41,25.66,32.95
		C322.387,153.469,350.627,190.499,386.447,221.849z M119.827,193.879c1.79-6.16,3.58-12.31,5.37-18.47
		c-0.83-0.25-1.66-0.5-2.49-0.75c-1.93,6.12-3.85,12.23-5.78,18.34C117.897,193.299,118.857,193.589,119.827,193.879z"/>
	<path style="fill:#C1272D;" d="M375.647,238.349c-0.8,0.73-2.28,2.71-4.26,3.78c-13.69,7.42-23.54,18.89-33.43,30.52
		c-10.53,12.38-21.36,24.57-32.87,36.03c-11.9,11.84-26.21,19.06-43.76,18.04c-6.71-0.39-13.47-0.06-21.75-0.06
		c3.53-8.16,6.44-14.88,9.35-21.61c-0.52-0.27-1.04-0.54-1.56-0.8c-3.09,5.8-6.39,11.51-9.2,17.45c-1.78,3.76-3.53,6.38-8.66,3.4
		c2.32-6.85,4.67-13.81,7.02-20.77c-0.57-0.21-1.14-0.41-1.71-0.62c-2.86,6.13-5.66,12.28-8.6,18.36c-1.79,3.71-1.89,3.67-9.02,3.55
		c2.18-10.79,10.24-19.76,9.74-33.76c-5.18,11.01-9.27,19.82-13.45,28.58c-3.41,7.13-3.46,7.11-12.75,5.96
		c2.61-7.43,5.21-14.8,7.81-22.18c-8.79,6.91-8.95,19.48-17.13,26.43c-0.99-0.49-1.98-0.98-2.98-1.47
		c2.09-7.61,4.17-15.22,6.25-22.82c-0.77-0.27-1.54-0.53-2.32-0.8c-2.74,6.51-5.86,12.89-8.12,19.56
		c-2.22,6.53-5.97,10.51-14.19,10.87c3.69-10.05,7.26-19.79,10.84-29.52c-0.93-0.38-1.87-0.76-2.8-1.13
		c-4.38,9.58-9.22,19-12.97,28.83c-2.07,5.44-4.98,7.23-10.99,6.56c3.85-11.3,7.51-22.05,11.18-32.79
		c-1.02-0.34-2.04-0.68-3.06-1.03c-4.83,11.54-9.66,23.07-14.77,35.27c-1.98-0.23-4.32-0.51-8.04-0.94
		c3.92-12.11,7.61-23.47,11.29-34.84c-0.76-0.29-1.53-0.58-2.29-0.88c-4.85,11.06-9.7,22.11-14.9,33.95
		c-3.67-1.37-6.87-2.57-10.23-3.82c3.24-14.3,10.25-26.85,11.19-40.87c-0.74-0.26-1.48-0.52-2.22-0.77
		c-2.32,6.28-4.67,12.55-6.94,18.86c-2.3,6.41-4.51,12.85-6.96,19.86c-2.99-1.22-5.54-2.27-9.29-3.81
		c3.91-14.67,7.76-29.1,11.61-43.52c-0.69-0.23-1.37-0.45-2.05-0.67c-6.44,12.22-9.64,25.72-14.28,39.99
		c-3.42-2.03-6.29-3.73-9.92-5.88c3.21-12.18,6.32-23.93,9.42-35.68c-8.61,8.89-9.23,20.96-13.74,32.79
		c-3.91-2.94-7.25-5.46-11.46-8.63c3.57-12.2,7.15-24.44,10.73-36.68c-0.92-0.29-1.83-0.59-2.75-0.88
		c-3.97,11.06-7.94,22.12-11.9,33.13c-9.31-5.59-9.33-5.6-6.08-14.9c2.47-7.04,4.99-14.06,6.68-21.41
		c-7.35,7.23-8.79,17.46-13.46,25.87c-5.11-1.17-5.71-3.93-4.47-8.21c2.09-7.2,3.68-14.55,5.48-21.83
		c-0.73-0.23-1.45-0.46-2.17-0.69c-2.72,7.84-5.44,15.68-8.28,23.84c-9.8-4.39-19.93-8.93-30.82-13.81
		c33.11-20.01,66.02-39.9,100.16-60.53c2.2,1.29,6.08,3.18,9.51,5.68c31.48,22.91,65.56,24.8,100.94,11.66
		c20.1-7.47,39.13-17.23,51.82-35.55c7.4,0.71,12.68,4.06,18.09,7.88c12.97,9.14,25.81,18.74,39.77,26.11
		C352.227,232.439,364.237,234.639,375.647,238.349z M252.737,321.019c1.69-4.72,3.38-9.45,5.07-14.17
		c-0.96-0.28-1.91-0.57-2.87-0.85c-0.86,4.94-5,8.85-4.54,14.21C251.177,320.479,251.957,320.749,252.737,321.019z"/>
	<path d="M257.807,306.849c-1.69,4.72-3.38,9.45-5.07,14.17c-0.78-0.27-1.56-0.54-2.34-0.81c-0.46-5.36,3.68-9.27,4.54-14.21
		C255.897,306.279,256.847,306.569,257.807,306.849z"/>
	<path d="M125.197,175.409c-1.79,6.16-3.58,12.31-5.37,18.47c-0.97-0.29-1.93-0.58-2.9-0.88c1.93-6.11,3.85-12.22,5.78-18.34
		C123.537,174.909,124.367,175.159,125.197,175.409z"/>
	<path d="M86.857,206.649c-1.41,2.41-2.82,4.83-4.22,7.25c0.57-2.73,1.14-5.45,1.72-8.19
		C85.187,206.019,86.027,206.329,86.857,206.649z"/>
	<path d="M82.637,213.899c-0.07,0.29-0.13,0.59-0.19,0.88c0,0-0.12-0.1-0.19-0.14l-0.03-0.03v0.01c0-0.01-0.01-0.01-0.01-0.01
		C82.357,214.369,82.497,214.139,82.637,213.899z"/>
	<path d="M82.447,214.779c-0.06,0.09-0.11,0.18-0.17,0.27c-0.02-0.14-0.03-0.29-0.05-0.43c0.01,0,0.02,0.01,0.03,0.02
		C82.327,214.679,82.447,214.779,82.447,214.779z"/>
	<path d="M82.227,214.609l0.03,0.03c-0.01-0.01-0.02-0.02-0.03-0.02V214.609z"/>
</g>
<g>
</g>
<g>
</g>
<g>
</g>
<g>
</g>
<g>
</g>
<g>
</g>
<g>
</g>
<g>
</g>
<g>
</g>
<g>
</g>
<g>
</g>
<g>
</g>
<g>
</g>
<g>
</g>
<g>
</g>
</svg>
