<?xml version="1.0" encoding="iso-8859-1"?>
<!-- Generator: Adobe Illustrator 19.0.0, SVG Export Plug-In . SVG Version: 6.00 Build 0)  -->
<svg version="1.1" id="Layer_1" xmlns="http://www.w3.org/2000/svg" xmlns:xlink="http://www.w3.org/1999/xlink" x="0px" y="0px"
	 viewBox="0 0 447.164 447.164" style="enable-background:new 0 0 447.164 447.164;" xml:space="preserve">
<g>
	<path style="fill:#A0CE51;" d="M230.94,444.116c-1.883,1.883-4.485,3.048-7.358,3.048c-5.747,0-10.406-4.659-10.407-10.407V281.865
		c0-5.748,4.659-10.407,10.407-10.407c5.747,0,10.406,4.659,10.407,10.407v154.893C233.988,439.631,232.824,442.232,230.94,444.116z
		"/>
	<path style="fill:#B7ED62;" d="M223.582,281.864L223.582,281.864c38.917,38.917,102.015,38.917,140.932,0l0,0
		c38.917-38.917,38.917-102.015,0-140.932l0,0L223.582,0L82.65,140.932l0,0c-38.917,38.917-38.917,102.015,0,140.932l0,0
		C121.567,320.782,184.665,320.782,223.582,281.864L223.582,281.864z"/>
	<path style="fill:#A0CE51;" d="M237.711,77.649l-6.324,6.324V60.861c0-4.31-3.494-7.805-7.805-7.805
		c-4.312,0-7.805,3.494-7.805,7.805v23.087l-6.3-6.3c-3.048-3.048-7.99-3.048-11.038,0c-3.048,3.048-3.048,7.99,0,11.038
		l17.338,17.338v40.475l-21.256-21.256c-3.048-3.048-7.99-3.048-11.038,0c-3.048,3.048-3.048,7.99,0,11.038l32.293,32.293v39.242
		L181.84,173.88c-3.048-3.048-7.99-3.048-11.038,0s-3.048,7.99,0,11.038l44.975,44.975v12.723c0,4.311,3.494,7.805,7.805,7.805
		c2.156,0,4.107-0.873,5.519-2.286s2.286-3.364,2.286-5.519v-12.723l44.975-44.975c3.048-3.048,3.048-7.99,0-11.038
		s-7.99-3.048-11.038,0l-33.938,33.938v-39.242l32.293-32.293c3.048-3.048,3.048-7.99,0-11.038s-7.99-3.048-11.038,0L231.387,146.5
		v-40.451l17.362-17.362c3.048-3.048,3.048-7.99,0-11.038C245.701,74.601,240.759,74.601,237.711,77.649z"/>
</g>
<g>
</g>
<g>
</g>
<g>
</g>
<g>
</g>
<g>
</g>
<g>
</g>
<g>
</g>
<g>
</g>
<g>
</g>
<g>
</g>
<g>
</g>
<g>
</g>
<g>
</g>
<g>
</g>
<g>
</g>
</svg>
