<?xml version="1.0" encoding="iso-8859-1"?>
<!-- Generator: Adobe Illustrator 19.0.0, SVG Export Plug-In . SVG Version: 6.00 Build 0)  -->
<svg version="1.1" id="Capa_1" xmlns="http://www.w3.org/2000/svg" xmlns:xlink="http://www.w3.org/1999/xlink" x="0px" y="0px"
	 viewBox="0 0 464.323 464.323" style="enable-background:new 0 0 464.323 464.323;" xml:space="preserve">
<g>
	<path style="fill:#FF9926;" d="M128.684,447.551c38.741-1.605,65.12-5.414,86.316-8.473c23.979-3.461,41.304-5.963,62.275-3.443
		c18.29,2.197,27.433,5.599,34.779,8.333c7.049,2.623,11.705,4.355,22.547,4.355c19.214,0,34.845-15.631,34.845-34.845
		c0-4.944-3.585-16.989-6.747-27.616c-5.07-17.035-8.108-27.889-7.556-34.959C365.422,219.377,383.916,55.649,388.469,16h-86.324
		c-4.418,0-8-3.582-8-8v0h-14v0c0,4.418-3.582,8-8,8h-1.313c3.46,41.996,18.574,225.752,25.365,313.203
		c0.191,2.456-0.76,4.863-2.578,6.525c-0.928,0.848-23.141,21.004-59.347,41.372c-27.245,15.326-66.878,33.044-112.261,39.14
		l-0.045,5.955c-0.034,4.397-3.609,7.939-7.999,7.939c-0.021,0-0.041,0-0.062,0c-4.419-0.034-7.973-3.643-7.939-8.061l0.032-4.203
		c-5.33,0.367-10.724,0.563-16.175,0.563c-8.241,0-14.946,6.705-14.946,14.946s6.705,14.946,14.946,14.946
		c3.104,0,6.145-0.014,9.123-0.04c0.023,0,0.048,0,0.071,0c4.343,0,7.885,3.468,7.992,7.803l14.015-0.345
		C120.916,451.386,124.314,447.732,128.684,447.551z"/>
	<path d="M99.017,448.283c-0.023,0-0.048,0-0.071,0c-2.979,0.026-6.02,0.04-9.123,0.04c-8.241,0-14.946-6.705-14.946-14.946
		s6.705-14.946,14.946-14.946c5.45,0,10.845-0.196,16.175-0.563l-0.032,4.203c-0.033,4.418,3.521,8.027,7.939,8.061
		c0.021,0,0.041,0,0.062,0c4.39,0,7.965-3.542,7.999-7.939l0.045-5.955c45.384-6.096,85.016-23.814,112.261-39.14
		c36.206-20.367,58.419-40.524,59.347-41.372c1.818-1.662,2.77-4.069,2.578-6.525C289.406,241.752,274.292,57.996,270.832,16h1.313
		c4.418,0,8-3.582,8-8v0c0-4.418-3.582-8-8-8h-10c-2.236,0-4.37,0.936-5.885,2.581c-1.515,1.645-2.272,3.849-2.088,6.078
		c0.181,2.191,17.935,217.353,25.761,317.768c-7.022,5.946-26.42,21.532-53.874,36.935c-31.771,17.824-81.194,39.07-136.236,39.07
		c-17.063,0-30.946,13.882-30.946,30.946s13.883,30.946,30.946,30.946c3.15,0,6.238-0.014,9.264-0.041
		c4.418-0.039,7.968-3.652,7.93-8.07c0-0.043-0.006-0.084-0.007-0.126C106.903,451.751,103.361,448.283,99.017,448.283z"/>
	<path d="M405.392,8.931c0.266-2.268-0.45-4.542-1.969-6.248C401.906,0.976,399.731,0,397.447,0h-95.302c-4.418,0-8,3.581-8,8v0
		c0,4.418,3.582,8,8,8h86.324c-4.554,39.649-23.048,203.377-33.325,334.903c-0.553,7.071,2.485,17.924,7.556,34.959
		c3.162,10.627,6.747,22.672,6.747,27.616c0,19.213-15.631,34.845-34.845,34.845c-10.842,0-15.498-1.732-22.547-4.355
		c-7.347-2.733-16.489-6.135-34.779-8.333c-20.972-2.52-38.297-0.018-62.275,3.443c-21.196,3.06-47.575,6.868-86.316,8.473
		c-4.37,0.181-7.769,3.835-7.661,8.19c0.001,0.045-0.003,0.089-0.001,0.134c0.183,4.415,3.934,7.843,8.324,7.662
		c39.557-1.639,66.384-5.512,87.94-8.624c22.764-3.286,39.21-5.66,58.081-3.393c16.401,1.971,24.214,4.877,31.107,7.442
		c7.408,2.756,14.405,5.36,28.127,5.36c28.036,0,50.845-22.809,50.845-50.845c0-7.274-3.435-18.816-7.412-32.18
		c-3.081-10.353-7.3-24.53-6.939-29.149C382.794,202.45,405.168,10.849,405.392,8.931z"/>
</g>
<g>
</g>
<g>
</g>
<g>
</g>
<g>
</g>
<g>
</g>
<g>
</g>
<g>
</g>
<g>
</g>
<g>
</g>
<g>
</g>
<g>
</g>
<g>
</g>
<g>
</g>
<g>
</g>
<g>
</g>
</svg>
