<?xml version="1.0" encoding="iso-8859-1"?>
<!-- Generator: Adobe Illustrator 19.0.0, SVG Export Plug-In . SVG Version: 6.00 Build 0)  -->
<svg version="1.1" id="Layer_1" xmlns="http://www.w3.org/2000/svg" xmlns:xlink="http://www.w3.org/1999/xlink" x="0px" y="0px"
	 viewBox="0 0 369.451 369.451" style="enable-background:new 0 0 369.451 369.451;" xml:space="preserve">
<g>
	<g>
		<path d="M341.688,302.188c0-4.971-4.029-9-9-9H320.15l-4.095-16.82c-5.647-23.194-9.398-46.939-11.148-70.575
			c-0.349-4.7-4.263-8.335-8.976-8.335h-13.083v-25.992c0.504-1.489,0.877-3.024,1.079-4.601c2.333-2.376,4.299-5.072,5.845-8.012
			c2.633-0.736,5.162-1.848,7.489-3.302c9.68-6.054,14.744-17.316,13.146-28.396c4.092-8.722,3.567-19.085-1.615-27.373
			c-1.511-2.417-3.37-4.582-5.51-6.434c1.078-8.526-0.789-17.213-5.422-24.622c-6.977-11.159-18.978-17.671-31.782-17.671
			c-0.197,0-0.396,0.001-0.594,0.004c-4.619-5.89-11.059-9.996-18.456-11.701c-8.56-1.974-17.377-0.496-24.827,4.163
			c-7.449,4.658-12.639,11.938-14.612,20.499c-1.974,8.562-0.495,17.378,4.163,24.828c3.028,4.841,7.191,8.735,12.06,11.404
			c-3.422,10.242-2.29,21.602,3.506,31.218c-1.396,3.924-2.066,8.091-1.963,12.296c0.231,9.406,4.381,18.3,11.292,24.544
			c0.221,1.15,0.543,2.262,0.922,3.346v25.802h-11.923c-4.666,0-8.559,3.567-8.966,8.215c-0.002,0.018-0.01,0.113-0.011,0.131
			c-1.924,23.58-5.843,47.265-11.648,70.395l-4.265,16.99h-31.568l-4.096-16.82c-5.646-23.194-9.397-46.939-11.148-70.576
			c-0.349-4.7-4.263-8.335-8.976-8.335h-13.083v-27.146c2.45-3.672,4.052-7.95,4.522-12.552c3.255-3.189,5.938-6.889,7.955-10.963
			c3.438-0.853,6.744-2.249,9.763-4.135c11.574-7.239,17.533-20.813,15.341-34.053c5.133-10.375,4.618-22.853-1.597-32.792
			c-1.995-3.19-4.506-6.006-7.421-8.348c1.636-10.574-0.545-21.433-6.301-30.637c-8.669-13.862-23.82-21.718-39.811-21.064
			C102.362-0.414,79.686-4.93,62.332,5.921C44.101,17.32,38.545,41.425,49.944,59.655c3.944,6.308,9.515,11.258,16.035,14.416
			c-4.956,12.926-3.703,27.576,3.922,39.77c0.06,0.095,0.12,0.19,0.18,0.285c-1.914,4.957-2.843,10.268-2.711,15.633
			c0.28,11.438,5.438,22.239,14,29.681c0.742,4.535,2.583,8.693,5.233,12.201v25.817H74.681c-4.666,0-8.559,3.567-8.966,8.215
			c-0.002,0.018-0.01,0.113-0.011,0.131c-1.924,23.582-5.843,47.266-11.649,70.395l-4.265,16.99H36.763c-4.971,0-9,4.029-9,9
			s4.029,9,9,9h8.51L33.457,358.26c-0.675,2.689-0.072,5.54,1.633,7.726c1.706,2.187,4.324,3.465,7.097,3.465h134.115
			c2.762,0,5.37-1.268,7.077-3.439c0.582-0.741,1.026-1.563,1.347-2.426c0.317,0.853,0.754,1.666,1.327,2.4
			c1.706,2.187,4.324,3.465,7.097,3.465h134.115c2.762,0,5.37-1.268,7.077-3.439c1.706-2.171,2.32-5.006,1.667-7.689l-11.476-47.134
			h8.156C337.659,311.188,341.688,307.158,341.688,302.188z M85.364,129.318c-0.101-4.122,0.918-8.18,2.948-11.737
			c0.047-0.083,0.076-0.172,0.121-0.256c0.049-0.093,0.11-0.175,0.156-0.27c0.024-0.051,2.718-5.357,7.334-9.639
			c7.203-6.681,13.085-5.544,16.884-4.108c4.652,1.754,9.844-0.59,11.6-5.239c1.757-4.65-0.589-9.843-5.238-11.6
			c-15.927-6.016-28.861,0.859-37.414,9.604c-1.749-7.51-0.208-15.528,4.576-22.013c1.89-2.563,2.285-5.933,1.04-8.863
			c-1.245-2.931-3.946-4.985-7.103-5.402c-6.24-0.825-11.73-4.355-15.063-9.683c-6.137-9.814-3.146-22.792,6.669-28.929
			c9.238-5.777,21.273-3.461,27.773,5.014c-2.935,6.497-5.725,8.324-6.737,8.468c-4.451-1.069-9.075,1.402-10.599,5.821
			c-1.62,4.699,0.876,9.822,5.575,11.442c0.239,0.083,2.101,0.69,4.88,0.69c5.877,0,15.851-2.719,23.222-18.867
			c9.218-0.052,17.875,4.599,22.896,12.625c4.198,6.714,5.219,14.904,2.801,22.468c-1.356,4.242,0.594,8.839,4.588,10.811
			c2.616,1.292,4.807,3.265,6.333,5.706c3.224,5.155,3.142,11.787-0.207,16.896c-1.447,2.207-1.853,4.937-1.109,7.469
			c1.968,6.706-0.792,13.974-6.709,17.674c-2.21,1.382-4.64,2.172-7.221,2.348c-3.645,0.248-6.777,2.674-7.93,6.141
			c-1.404,4.226-4,7.916-7.508,10.671c-2.346,1.842-3.626,4.728-3.419,7.703c0.013,0.171,0.027,0.341,0.043,0.511l0.004,0.046
			c0.064,5.332-4.187,9.755-9.533,9.887c-5.298,0.135-9.789-4.06-10.004-9.364c0.006-0.157,0.011-0.315,0.013-0.474
			c0.028-2.987-1.428-5.793-3.885-7.49C89.196,143.272,85.54,136.52,85.364,129.318z M113.883,182.23v15.227h-9.28V182.39
			c1.361,0.207,2.75,0.319,4.164,0.319c0.229,0,0.462-0.003,0.692-0.009C110.968,182.663,112.444,182.499,113.883,182.23z
			 M82.9,215.457h53.788c0.377,4.057,0.83,8.114,1.319,12.169H81.492C82.011,223.571,82.492,219.515,82.9,215.457z M53.724,351.451
			l17.79-70.87c2.897-11.542,5.327-23.219,7.31-34.955h61.72c1.898,11.748,4.244,23.441,7.058,35l17.245,70.825H53.724z
			 M184.73,357.024l-11.161-45.836h22.667L184.73,357.024z M227.01,79.305c-4.351-6.964-2.229-16.17,4.733-20.523
			c3.372-2.109,7.365-2.778,11.24-1.884c3.876,0.894,7.172,3.243,9.282,6.619c0.202,0.322,0.407,0.687,0.626,1.114
			c1.81,3.523,5.713,5.451,9.604,4.747c7.937-1.432,15.828,2.057,20.102,8.892c3.059,4.891,3.803,10.857,2.04,16.368
			c-1.356,4.243,0.594,8.84,4.588,10.812c1.78,0.878,3.268,2.217,4.303,3.875c2.19,3.501,2.134,8.01-0.145,11.485
			c-1.446,2.207-1.852,4.937-1.108,7.468c1.338,4.557-0.537,9.496-4.559,12.011c-1.501,0.939-3.152,1.476-4.905,1.595
			c-3.646,0.248-6.778,2.675-7.93,6.142c-1.004,3.023-2.862,5.664-5.374,7.638c-2.335,1.834-3.614,4.703-3.42,7.666
			c0.009,0.134,0.02,0.267,0.035,0.439c0.002,1.539-0.577,2.994-1.642,4.112c-1.097,1.152-2.576,1.808-4.167,1.847
			c-3.247,0.061-5.925-2.436-6.092-5.631c0.005-0.129,0.008-0.259,0.009-0.39c0.018-2.976-1.437-5.768-3.885-7.459
			c-4.319-2.983-6.87-7.694-6.999-12.925c-0.072-2.948,0.656-5.852,2.108-8.397c1.865-3.269,1.499-7.353-0.918-10.238
			c-0.637-0.76-1.17-1.487-1.629-2.221c-4.291-6.863-3.957-15.509,0.852-22.028c1.89-2.562,2.285-5.932,1.04-8.862
			c-1.245-2.93-3.946-4.984-7.103-5.402C233.269,85.589,229.374,83.085,227.01,79.305z M264.848,187.265v10.192h-9.28v-10.185
			c1.488,0.291,3.021,0.456,4.591,0.456c0.198,0,0.398-0.002,0.598-0.008C262.146,187.686,263.512,187.528,264.848,187.265z
			 M233.863,215.457h53.788c0.377,4.057,0.83,8.114,1.319,12.169h-56.515C232.974,223.571,233.455,219.515,233.863,215.457z
			 M204.687,351.451l17.791-70.871c2.897-11.542,5.326-23.219,7.309-34.954h61.72c1.898,11.748,4.245,23.441,7.059,35l17.244,70.825
			H204.687z"/>
	</g>
</g>
<g>
</g>
<g>
</g>
<g>
</g>
<g>
</g>
<g>
</g>
<g>
</g>
<g>
</g>
<g>
</g>
<g>
</g>
<g>
</g>
<g>
</g>
<g>
</g>
<g>
</g>
<g>
</g>
<g>
</g>
</svg>
