<?xml version="1.0" encoding="iso-8859-1"?>
<!-- Generator: Adobe Illustrator 19.0.0, SVG Export Plug-In . SVG Version: 6.00 Build 0)  -->
<svg version="1.1" id="Layer_1" xmlns="http://www.w3.org/2000/svg" xmlns:xlink="http://www.w3.org/1999/xlink" x="0px" y="0px"
	 viewBox="0 0 330 330" style="enable-background:new 0 0 330 330;" xml:space="preserve">
<g id="XMLID_1539_">
	<path id="XMLID_1540_" style="fill:#EA348B;" d="M165,330L60,150v-45C60,47.01,107.01,0,165,0l0,0c57.99,0,105,47.01,105,105v45
		L165,330z"/>
	<path id="XMLID_1541_" style="fill:#AF2768;" d="M165,330L60,150v-45C60,47.01,107.01,0,165,0l0,0C165,44.667,165,330,165,330z"/>
	<path id="XMLID_1542_" style="fill:#FFDA44;" d="M178.613,49.606c-0.846-1.256-1.582-2.604-2.163-4.069
		c-4.067-10.246,0.327-21.75,9.84-26.804c-6.364-2.34-13.577-2.438-20.375,0.261c-14.659,5.819-21.826,22.419-16.009,37.079
		c2.201,5.546,5.946,10.018,10.548,13.12C164.292,60.939,170.703,54.049,178.613,49.606z"/>
	<path id="XMLID_1543_" style="fill:#FFD6A0;" d="M226.949,90.87c-0.003-0.006-0.004-0.01-0.005-0.017
		c-6.962-27.732-32.051-48.271-61.942-48.272l0,0h-0.001H165l0,0c-29.892,0.001-54.98,20.54-61.942,48.272
		c-0.001,0.007-0.002,0.011-0.005,0.017c-7.17,1.57-12.567,7.94-12.567,15.581c0,7.651,5.388,14.04,12.572,15.598
		c6.962,27.734,32.051,48.273,61.942,48.273l0,0h0.001h0.001l0,0c29.892-0.001,54.98-20.539,61.942-48.273
		c7.185-1.558,12.572-7.946,12.572-15.598C239.517,98.811,234.119,92.44,226.949,90.87z"/>
	<path id="XMLID_1544_" style="fill:#FFC170;" d="M103.056,90.854c-7.185,1.559-12.572,7.947-12.572,15.598
		s5.388,14.04,12.572,15.598c6.962,27.734,32.052,48.273,61.944,48.273V42.581C135.107,42.581,110.018,63.12,103.056,90.854z"/>
	<g id="XMLID_1545_">
		<circle id="XMLID_1546_" style="fill:#EA348B;" cx="152.226" cy="140.516" r="19.161"/>
		<circle id="XMLID_1547_" style="fill:#EA348B;" cx="177.774" cy="140.516" r="19.161"/>
	</g>
	<circle id="XMLID_1548_" style="fill:#AF2768;" cx="165" cy="140.516" r="15.968"/>
	<path id="XMLID_1549_" style="fill:#F7AED1;" d="M184.516,140.516c0,3.92-3.177,7.097-7.096,7.097h-24.839
		c-3.92,0-7.097-3.177-7.097-7.097l0,0c0-3.919,3.177-7.096,7.097-7.096h24.839C181.339,133.42,184.516,136.597,184.516,140.516
		L184.516,140.516z"/>
	<circle id="XMLID_1550_" style="fill:#804C09;" cx="138.387" cy="101.129" r="5.323"/>
	<g id="XMLID_1551_">
		<circle id="XMLID_1552_" style="fill:#804C09;" cx="191.613" cy="101.129" r="5.323"/>
	</g>
	<path id="XMLID_1553_" style="fill:#F7AED1;" d="M240.117,298.367C258.605,279.44,270,253.551,270,225v-75l-104.887,86.436
		C165.113,236.436,186,276,240.117,298.367z"/>
	<path id="XMLID_1554_" style="fill:#EA348B;" d="M240.077,298.406C221.014,317.9,194.42,330,165,330c-57.99,0-105-47.01-105-105
		v-75C60,150,240,298.334,240.077,298.406z"/>
</g>
<g>
</g>
<g>
</g>
<g>
</g>
<g>
</g>
<g>
</g>
<g>
</g>
<g>
</g>
<g>
</g>
<g>
</g>
<g>
</g>
<g>
</g>
<g>
</g>
<g>
</g>
<g>
</g>
<g>
</g>
</svg>
