<?xml version="1.0" encoding="iso-8859-1"?>
<!-- Generator: Adobe Illustrator 19.0.0, SVG Export Plug-In . SVG Version: 6.00 Build 0)  -->
<svg version="1.1" id="Capa_1" xmlns="http://www.w3.org/2000/svg" xmlns:xlink="http://www.w3.org/1999/xlink" x="0px" y="0px"
	 viewBox="0 0 480 480" style="enable-background:new 0 0 480 480;" xml:space="preserve">
<path id="XMLID_1145_" d="M230.358,140c0-5.523,4.462-10,9.965-10h1.993c5.503,0,9.965,4.477,9.965,10s-4.462,10-9.965,10h-1.993
	C234.819,150,230.358,145.523,230.358,140z M248.588,181.545c-8.728,5.531-18.822,8.455-29.191,8.455
	c-10.368,0-20.462-2.924-29.19-8.455c-4.656-2.95-10.807-1.554-13.746,3.116s-1.548,10.846,3.104,13.794
	C191.483,206.008,205.257,210,219.397,210c14.141,0,27.915-3.992,39.833-11.545c4.652-2.949,6.043-9.125,3.104-13.794
	C259.395,179.991,253.241,178.596,248.588,181.545z M196.478,150h1.993c5.503,0,9.965-4.477,9.965-10s-4.462-10-9.965-10h-1.993
	c-5.503,0-9.965,4.477-9.965,10S190.976,150,196.478,150z M351.738,288.382l-1.623-1.16c-4.482-3.204-10.704-2.151-13.897,2.347
	c-3.192,4.499-2.145,10.743,2.338,13.946l1.623,1.16c1.753,1.252,3.772,1.854,5.77,1.854c3.115,0,6.182-1.461,8.126-4.201
	C357.268,297.829,356.221,291.585,351.738,288.382z M415.775,367.518c0,0-3.179,4.632-3.917,5.542l-52.543,74.342
	c-13.709,19.397-35.046,31.192-58.678,32.482c-0.496,0.077-1.005,0.116-1.523,0.116H139.681c-38.461,0-69.752-31.402-69.752-70v-30
	c0-13.847,1.879-27.261,5.395-40H59.965C54.462,340,50,335.523,50,330V170C50,76.262,125.991,0,219.397,0
	s169.397,76.262,169.397,170v84.319c2.993,1.588,5.902,3.382,8.709,5.381c16.789,11.95,27.936,29.747,31.387,50.111
	C432.341,330.175,427.684,350.669,415.775,367.518z M82.41,320c16.617-38.064,48.533-67.92,87.904-81.693
	c-9.876-5.001-19.047-11.54-27.203-19.487c-20.442-19.92-32.251-46.507-33.254-74.862c-0.045-1.262-0.068-2.558-0.069-3.852
	c-0.018-17.198,9.844-33.276,25.123-40.961C159.81,86.62,189.025,80,219.397,80c30.375,0,59.593,6.622,84.495,19.149
	c15.219,7.657,25.078,23.596,25.115,40.606V140c0,29.521-11.494,57.237-32.364,78.043c-8.367,8.339-17.833,15.161-28.065,20.327
	c14.233,4.976,27.716,12.102,39.904,21.181c9.28-6.58,19.988-11.044,31.522-13.012c9.728-1.661,19.487-1.45,28.862,0.536V170
	c0-82.71-67.05-150-149.467-150C136.98,20,69.929,87.29,69.929,170v150H82.41z M282.597,203.854
	c17.077-17.023,26.481-39.7,26.481-63.854v-0.223c-0.02-9.507-5.562-18.445-14.117-22.749C272.817,105.888,246.687,100,219.397,100
	c-27.288,0-53.414,5.887-75.555,17.025c-8.591,4.32-14.134,13.372-14.125,23.061c0,0,0,0.001,0,0.001
	c0.001,1.049,0.019,2.102,0.056,3.158c1.68,47.52,41.609,86.435,89.009,86.752c0.206,0.001,0.413,0.002,0.618,0.002
	C243.247,230,265.669,220.729,282.597,203.854z M219.398,250c-8.518,0-16.848,0.83-24.912,2.412V255c0,13.785,11.175,25,24.911,25
	c13.736,0,24.911-11.215,24.911-25v-2.563C236.142,250.826,227.799,250,219.398,250z M149.645,380v10c0,5.514,4.47,10,9.965,10
	h59.834c0.51-15.032,5.387-29.66,14.165-42.079l56.46-79.884c1.121-1.587,2.295-3.124,3.517-4.608
	c-9.137-6.403-19.047-11.576-29.448-15.415C262.587,281.427,243.113,300,219.398,300c-23.723,0-43.204-18.583-44.743-42.007
	C125.205,276.313,89.858,324.09,89.858,380v30c0,27.57,22.35,50,49.823,50h89.681v-40H159.61c-16.483,0-29.894-13.458-29.894-30v-10
	c0-5.523,4.462-10,9.965-10S149.645,374.477,149.645,380z M289.148,440c0-11.028-8.94-20-19.928-20h-19.93v40h19.93
	C280.209,460,289.148,451.028,289.148,440z M373.859,392.254c-6.912,0.288-13.922-0.824-20.621-3.432
	c-13.555,10.876-33.199,11.939-48.021,1.351c-14.791-10.568-20.227-29.485-14.483-45.875c-4.667-5.502-8.017-11.81-10.001-18.482
	l-30.87,43.676c-6.375,9.02-9.975,19.606-10.475,30.508h29.832c21.977,0,39.857,17.944,39.857,40c0,7.074-1.839,13.726-5.063,19.497
	c15.73-2.082,29.752-10.518,39.046-23.666L373.859,392.254z M316.775,373.88c8.426,6.02,19.969,4.508,26.611-3.185
	c0.072-0.093,0.146-0.185,0.222-0.276c0.386-0.464,0.702-0.869,0.964-1.238c0.002-0.003,0.004-0.005,0.006-0.008
	c6.36-8.983,4.26-21.487-4.687-27.879c-8.953-6.396-21.421-4.289-27.794,4.694c-0.004,0.006-0.009,0.012-0.013,0.018
	c-0.268,0.379-0.552,0.821-0.867,1.35c-0.057,0.097-0.117,0.193-0.178,0.288C306.002,356.453,308.361,367.869,316.775,373.88z
	 M409.243,313.164c-2.559-15.097-10.823-28.291-23.269-37.151c-2.61-1.857-5.323-3.463-8.111-4.823
	c-2.077-0.2-3.967-1.04-5.473-2.321c-23.559-8.559-50.885-0.741-66.068,20.739c0,0-1.484,2.301-1.785,2.727
	c-7.334,10.378-7.668,24.034-1.714,34.51c13.571-11.335,33.579-12.591,48.624-1.844c15.033,10.741,20.402,30.11,14.19,46.682
	c11.091,2.204,22.784-1.757,30.402-10.813l3.479-4.922C408.348,343.456,411.802,328.262,409.243,313.164z M387.457,313.901
	l-1.623-1.16c-4.482-3.205-10.704-2.155-13.897,2.344c-3.193,4.499-2.147,10.743,2.335,13.947l1.623,1.16
	c1.754,1.253,3.773,1.855,5.772,1.855c3.114,0,6.181-1.46,8.125-4.2C392.986,323.349,391.94,317.105,387.457,313.901z"/>
<g>
</g>
<g>
</g>
<g>
</g>
<g>
</g>
<g>
</g>
<g>
</g>
<g>
</g>
<g>
</g>
<g>
</g>
<g>
</g>
<g>
</g>
<g>
</g>
<g>
</g>
<g>
</g>
<g>
</g>
</svg>
