<?xml version="1.0" encoding="iso-8859-1"?>
<!-- Generator: Adobe Illustrator 19.0.0, SVG Export Plug-In . SVG Version: 6.00 Build 0)  -->
<svg version="1.1" id="Layer_1" xmlns="http://www.w3.org/2000/svg" xmlns:xlink="http://www.w3.org/1999/xlink" x="0px" y="0px"
	 viewBox="0 0 411.429 411.429" style="enable-background:new 0 0 411.429 411.429;" xml:space="preserve">
<g>
	<g>
		<path style="fill:#FCD09F;" d="M347.237,7.968c10.607,10.607,10.614,27.81,0,38.424l-94.752,94.752
			c5.303-5.303,12.261-7.962,19.219-7.962c1.216,0,2.425,0.078,3.627,0.247c5.706,0.757,11.208,3.331,15.592,7.715
			c10.607,10.607,10.607,27.818-0.007,38.431l-13.258,13.258c5.31-5.31,12.261-7.962,19.219-7.962s13.916,2.659,19.219,7.962
			c10.614,10.614,10.607,27.818-0.007,38.431l-9.023,9.037c9.15-9.15,24.091-9.652,33.383-0.643
			c4.78,4.625,7.156,10.762,7.163,16.907c0,6.01-2.298,12.042-6.894,16.638l-84.075,84.075c-4.419,4.419-9.136,8.514-14.128,12.247
			c-4.985,3.741-10.246,7.121-15.719,10.119c-7.785,4.264-15.245,9.065-22.33,14.383c-7.078,5.31-13.782,11.123-20.061,17.402
			L56.234,283.259l19.714-19.714c3.189-3.189,5.303-7.142,6.244-11.363c0.948-4.229,0.714-8.719-0.813-12.961
			c-1.471-4.087-2.85-9.949-3.981-15.563c-2.114-10.458-1.294-21.305,2.333-31.339l24.402-67.437
			c4.165-11.547,14.701-19.58,26.934-20.541l15.952-1.259c9.256-0.728,17.763-5.374,23.37-12.749
			c0.672-0.884,1.386-1.711,2.143-2.468c9.115-9.115,24.176-9.355,33.566,0.035c1.294,1.294,2.475,2.659,3.55,4.073
			c2.298,3.019,4.101,6.293,5.416,9.716l93.734-93.734c5.31-5.31,12.261-7.962,19.226-7.955
			C334.975,0.006,341.933,2.665,347.237,7.968z"/>
	</g>
	<path style="fill:#E2B991;" d="M209.648,91.972c2.298,3.019,4.101,6.293,5.416,9.716l-71.984,71.984
		c-2.093-2.093-3.132-4.83-3.132-7.573c0.007-2.736,1.046-5.473,3.14-7.566L209.648,91.972z"/>
</g>
<g>
</g>
<g>
</g>
<g>
</g>
<g>
</g>
<g>
</g>
<g>
</g>
<g>
</g>
<g>
</g>
<g>
</g>
<g>
</g>
<g>
</g>
<g>
</g>
<g>
</g>
<g>
</g>
<g>
</g>
</svg>
