<?xml version="1.0" encoding="iso-8859-1"?>
<!-- Generator: Adobe Illustrator 19.0.0, SVG Export Plug-In . SVG Version: 6.00 Build 0)  -->
<svg version="1.1" id="Layer_1" xmlns="http://www.w3.org/2000/svg" xmlns:xlink="http://www.w3.org/1999/xlink" x="0px" y="0px"
	 viewBox="0 0 460 460" style="enable-background:new 0 0 460 460;" xml:space="preserve">
<g id="XMLID_1809_">
	<path id="XMLID_1404_" style="fill:#A5CEC6;" d="M440,232.903L440,232.903C440,297.574,390.751,350,330,350H40L240,20l0,0
		C350.457,20,440,115.32,440,232.903z"/>
	<path id="XMLID_1405_" style="fill:#7DADA4;" d="M230,350H40L227.138,41.222C293.938,75.698,340,148.572,340,232.903l0,0
		C340,297.574,290.751,350,230,350z"/>
	<path id="XMLID_1403_" style="fill:#686765;" d="M240,360h-20V10c0-5.523,4.477-10,10-10l0,0c5.523,0,10,4.477,10,10V360z"/>
	<path id="XMLID_1402_" style="fill:#D0CEC2;" d="M460,350L460,350c0,60.751-49.249,110-110,110H110C49.249,460,0,410.751,0,350l0,0
		c0-11.046,8.954-20,20-20h420C451.046,330,460,338.954,460,350z"/>
	<path id="XMLID_1401_" style="fill:#E1DFD1;" d="M20,330h370l0,0c0,38.66-31.34,70-70,70H11.995C4.327,384.999,0,368.005,0,350l0,0
		C0,338.954,8.954,330,20,330z"/>
</g>
<g>
</g>
<g>
</g>
<g>
</g>
<g>
</g>
<g>
</g>
<g>
</g>
<g>
</g>
<g>
</g>
<g>
</g>
<g>
</g>
<g>
</g>
<g>
</g>
<g>
</g>
<g>
</g>
<g>
</g>
</svg>
