<?xml version="1.0" encoding="iso-8859-1"?>
<!-- Generator: Adobe Illustrator 19.0.0, SVG Export Plug-In . SVG Version: 6.00 Build 0)  -->
<svg version="1.1" id="Layer_1" xmlns="http://www.w3.org/2000/svg" xmlns:xlink="http://www.w3.org/1999/xlink" x="0px" y="0px"
	 viewBox="0 0 457.926 457.926" style="enable-background:new 0 0 457.926 457.926;" xml:space="preserve">
<g>
	<polygon style="fill:#A0CE51;" points="149.616,206.932 95.124,206.932 109.857,253.431 134.883,253.431 	"/>
	<polygon style="fill:#A0CE51;" points="362.802,206.932 308.31,206.932 323.043,253.431 348.069,253.431 	"/>
	<circle style="fill:#999999;" cx="122.37" cy="265.429" r="29.999"/>
	<path style="fill:#666666;" d="M122.37,277.427c-6.616,0-11.999-5.382-11.999-11.999c0-6.616,5.382-11.998,11.999-11.998
		s11.999,5.382,11.999,11.998C134.368,272.045,128.986,277.427,122.37,277.427z"/>
	<circle style="fill:#999999;" cx="335.556" cy="265.429" r="29.999"/>
	<path style="fill:#666666;" d="M335.556,277.427c-6.616,0-11.999-5.382-11.999-11.999c0-6.616,5.382-11.998,11.999-11.998
		s11.999,5.382,11.999,11.998C347.555,272.045,342.173,277.427,335.556,277.427z"/>
	<path style="fill:#B7ED62;" d="M387.57,221.932H70.356L9.779,194.373c-8.387-3.816-12.093-13.708-8.277-22.095l0,0
		c3.816-8.387,13.708-12.093,22.095-8.278l53.992,24.563h302.747L434.329,164c8.387-3.816,18.28-0.11,22.095,8.278l0,0
		c3.816,8.387,0.11,18.28-8.277,22.095L387.57,221.932z"/>
</g>
<g>
</g>
<g>
</g>
<g>
</g>
<g>
</g>
<g>
</g>
<g>
</g>
<g>
</g>
<g>
</g>
<g>
</g>
<g>
</g>
<g>
</g>
<g>
</g>
<g>
</g>
<g>
</g>
<g>
</g>
</svg>
