<?xml version="1.0" encoding="iso-8859-1"?>
<!-- Generator: Adobe Illustrator 18.0.0, SVG Export Plug-In . SVG Version: 6.00 Build 0)  -->
<!DOCTYPE svg PUBLIC "-//W3C//DTD SVG 1.1//EN" "http://www.w3.org/Graphics/SVG/1.1/DTD/svg11.dtd">
<svg version="1.1" id="Capa_1" xmlns="http://www.w3.org/2000/svg" xmlns:xlink="http://www.w3.org/1999/xlink" x="0px" y="0px"
	 viewBox="0 0 363 363" style="enable-background:new 0 0 363 363;" xml:space="preserve">
<g>
	<path style="fill:#8777B7;" d="M349.53,168.03c0,32.54-9.25,62.91-25.26,88.64c-29.65,47.67-82.5,79.4-142.77,79.4
		s-113.12-31.73-142.77-79.4c-16.01-25.73-25.26-56.1-25.26-88.64C13.47,75.23,88.7,0,181.5,0S349.53,75.23,349.53,168.03z"/>
	<circle style="fill:#7367A5;" cx="181.5" cy="168.035" r="98.508"/>
	<circle style="fill:#635A96;" cx="181.5" cy="168.035" r="31.252"/>
	<path style="fill:none;stroke:#FFFFFF;stroke-width:10;stroke-linecap:round;stroke-miterlimit:10;" d="M329.146,199.921
		c-0.729,3.38-1.572,6.718-2.524,10.01"/>
	<path style="fill:none;stroke:#FFFFFF;stroke-width:10;stroke-linecap:round;stroke-miterlimit:10;" d="M236.048,27.188
		c56.402,21.919,96.486,76.789,96.486,140.845c0,3.725-0.136,7.418-0.402,11.076"/>
	<path style="fill:none;stroke:#FFFFFF;stroke-width:10;stroke-linecap:round;stroke-miterlimit:10;" d="M181.5,17
		c6.341,0,12.591,0.393,18.729,1.155"/>
	<path style="fill:#7367A5;" d="M324.27,256.67c-29.65,47.67-82.5,79.4-142.77,79.4s-113.12-31.73-142.77-79.4H324.27z"/>
	<path style="fill:#4D4D4D;" d="M323.741,363H39.259c-4.866,0-8.643-4.243-8.08-9.076l9.217-79.122
		c0.478-4.101,3.952-7.193,8.08-7.193h266.048c4.129,0,7.602,3.093,8.08,7.193l9.217,79.122
		C332.384,358.757,328.607,363,323.741,363z"/>
	<circle style="fill:#FFFFFF;" cx="117.5" cy="133" r="9"/>
	<circle style="fill:#FFFFFF;" cx="198.5" cy="188" r="9"/>
	<circle style="fill:#FFFFFF;" cx="254.5" cy="217.889" r="9"/>
	<circle style="fill:#FFFFFF;" cx="137.086" cy="201.41" r="9"/>
	<circle style="fill:#FFFFFF;" cx="194.133" cy="74.242" r="9"/>
	<circle style="fill:#FFFFFF;" cx="247.539" cy="115.187" r="9"/>
	
		<line style="fill:none;stroke:#FFFFFF;stroke-width:10;stroke-linecap:round;stroke-miterlimit:10;" x1="306.893" y1="288.07" x2="313.18" y2="342.037"/>
</g>
<g>
</g>
<g>
</g>
<g>
</g>
<g>
</g>
<g>
</g>
<g>
</g>
<g>
</g>
<g>
</g>
<g>
</g>
<g>
</g>
<g>
</g>
<g>
</g>
<g>
</g>
<g>
</g>
<g>
</g>
</svg>
