<?xml version="1.0" encoding="iso-8859-1"?>
<!-- Generator: Adobe Illustrator 19.0.0, SVG Export Plug-In . SVG Version: 6.00 Build 0)  -->
<svg version="1.1" id="Layer_1" xmlns="http://www.w3.org/2000/svg" xmlns:xlink="http://www.w3.org/1999/xlink" x="0px" y="0px"
	 viewBox="0 0 460 460" style="enable-background:new 0 0 460 460;" xml:space="preserve">
<g id="XMLID_2646_">
	<path id="XMLID_2089_" style="fill:#8E2E2E;" d="M209.225,233.696L7.714,300.866c-2.105,0.702-4.427,0.154-5.996-1.416
		c-2.893-2.893-2.006-7.785,1.719-9.478l180.17-81.896L209.225,233.696z"/>
	<path id="XMLID_2085_" style="fill:#8E2E2E;" d="M226.304,250.775l-67.17,201.511c-0.702,2.106-0.154,4.427,1.416,5.996
		c2.893,2.893,7.785,2.006,9.478-1.719l81.896-180.171L226.304,250.775z"/>
	<path id="XMLID_1673_" style="fill:#7A2626;" d="M225.21,335.076L170,456.537l-0.031,0.066c-1.051,2.275-4.48,0.916-3.688-1.461
		l38.57-115.709c2.839-8.517,13.648-11.069,19.996-4.72L225.21,335.076z"/>
	<path id="XMLID_1554_" style="fill:#7A2626;" d="M121.569,244.999L10.735,295.913c-2.277,1.046-0.925,4.479,1.454,3.691
		l0.069-0.023l126.405-42.696l0.017-0.513C138.976,247.399,129.727,241.252,121.569,244.999z"/>
	<path id="XMLID_452_" style="fill:#B74941;" d="M303.159,225.157l-51.237,51.237c-4.64-4.64-12.223-4.435-16.606,0.448
		L93.936,434.379c-2.516,2.264-6.364,2.163-8.758-0.23c-2.394-2.394-2.495-6.242-0.23-8.758l132.816-183.155L34.609,375.052
		c-2.516,2.264-6.364,2.163-8.758-0.23c-2.394-2.394-2.495-6.242-0.23-8.758l157.537-141.38c4.884-4.382,5.088-11.966,0.448-16.605
		l51.237-51.237L303.159,225.157z"/>
	<path id="XMLID_2071_" style="fill:#9E3B3B;" d="M143.787,295.856L35.776,374.179l-0.06,0.042
		c-2.037,1.459-4.348-1.417-2.485-3.093l90.702-81.543c6.676-6.002,17.335-2.88,19.718,5.776L143.787,295.856z"/>
	<path id="XMLID_1675_" style="fill:#9E3B3B;" d="M183.778,333.598c-4.172-7.949-15.251-8.729-20.495-1.442l-71.246,98.996
		c-1.464,2.034,1.407,4.352,3.086,2.492l0.049-0.054l88.844-99.538L183.778,333.598z"/>
	<path id="XMLID_1662_" style="fill:#CE7872;" d="M226.073,250.544c2.446,2.446,2.341,6.444-0.23,8.758L64.273,404.715
		c-2.516,2.265-6.365,2.163-8.758-0.23s-2.495-6.242-0.23-8.758l145.413-161.57c2.314-2.572,6.312-2.677,8.758-0.23L226.073,250.544
		z"/>
	<path id="XMLID_536_" style="fill:#DD817F;" d="M184.137,296.837L64.472,404.536c-2.364,2.128-5.988,2.407-8.456,0.401
		c-2.871-2.334-3.145-6.529-0.731-9.21l107.878-119.864c0.73-0.811,1.99-0.844,2.762-0.073c0.716,0.716,0.746,1.867,0.069,2.62
		l-59.472,66.08c-2.413,2.681-2.14,6.875,0.731,9.21c2.468,2.006,6.092,1.727,8.456-0.401l65.88-59.293
		c0.753-0.677,1.904-0.647,2.62,0.069C184.981,294.847,184.948,296.107,184.137,296.837z"/>
	<path id="XMLID_1648_" style="fill:#A03B38;" d="M301.461,226.855L301.461,226.855l-6.841,6.841l-68.316-68.316l8.54-8.539l0,0
		l6.841-6.841L310,218.316L301.461,226.855z"/>
	<path id="XMLID_817_" style="fill:#BE6A5F;" d="M450.874,65.22L320.157,223.457c-4.536,5.491-12.814,5.884-17.85,0.848
		l-66.612-66.612c-5.036-5.036-4.643-13.314,0.848-17.85L394.779,9.126c15.837-13.083,39.025-11.981,53.55,2.544l0,0
		C462.855,26.196,463.957,49.383,450.874,65.22z"/>
	<path id="XMLID_1598_" style="fill:#CE7872;" d="M448.33,11.67c-1.12-1.12-2.296-2.15-3.511-3.109l-116.932,96.596
		c-27.454,22.679-29.421,64.07-4.24,89.25l11.23,11.231L450.874,65.22C463.957,49.383,462.855,26.196,448.33,11.67z"/>
	<path id="XMLID_1578_" style="fill:#A04038;" d="M273.271,144.032c2.358,2.358,2.358,6.181,0,8.54s-6.181,2.358-8.54,0
		s-2.358-6.181,0-8.54C267.09,141.674,270.913,141.674,273.271,144.032z"/>
	<path id="XMLID_2068_" style="fill:#A04038;" d="M290.35,135.492c2.358-2.358,2.358-6.181,0-8.54c-2.358-2.359-6.181-2.358-8.54,0
		c-2.358,2.358-2.358,6.181,0,8.54S287.992,137.851,290.35,135.492z"/>
	<path id="XMLID_2070_" style="fill:#A04038;" d="M281.81,161.111c-2.358,2.358-2.358,6.181,0,8.539s6.181,2.358,8.54,0
		s2.358-6.181,0-8.539C287.992,158.753,284.168,158.753,281.81,161.111z"/>
	<path id="XMLID_810_" style="fill:#66171D;" d="M247.653,229.426c-7.074,7.074-18.544,7.074-25.618,0
		c-7.074-7.074-7.074-18.544,0-25.618c7.074-7.074,18.544-7.074,25.618,0C254.727,210.882,254.727,222.352,247.653,229.426z"/>
	<path id="XMLID_808_" style="fill:#350B0E;" d="M239.113,220.887c-2.358,2.358-6.181,2.358-8.539,0s-2.358-6.181,0-8.54
		s6.181-2.358,8.539,0C241.471,214.706,241.471,218.529,239.113,220.887z"/>
</g>
<g>
</g>
<g>
</g>
<g>
</g>
<g>
</g>
<g>
</g>
<g>
</g>
<g>
</g>
<g>
</g>
<g>
</g>
<g>
</g>
<g>
</g>
<g>
</g>
<g>
</g>
<g>
</g>
<g>
</g>
</svg>
