<?xml version="1.0" encoding="iso-8859-1"?>
<!-- Generator: Adobe Illustrator 19.0.0, SVG Export Plug-In . SVG Version: 6.00 Build 0)  -->
<svg version="1.1" id="Layer_1" xmlns="http://www.w3.org/2000/svg" xmlns:xlink="http://www.w3.org/1999/xlink" x="0px" y="0px"
	 viewBox="0 0 440.87 440.87" style="enable-background:new 0 0 440.87 440.87;" xml:space="preserve">
<g>
	<path style="fill:#B7ED62;" d="M429.88,136.55l10.99,48.09l-0.02,0.01h-73.44c-52.03,0-94.53,38.18-102.35,87.19h-89.25
		c-7.82-49.01-50.32-87.19-102.35-87.19H0.02L0,184.64l10.99-48.09C150.24,151.01,290.63,151.01,429.88,136.55z"/>
	<path style="fill:#A1D14E;" d="M440.85,184.65l-21.91,10.31c-59.76,28.11-111.01,71.56-148.51,125.92h-4.26l-2.02-23.85
		c-0.73-8.61-0.39-17.05,0.91-25.19c7.82-49.01,50.32-87.19,102.35-87.19H440.85z"/>
	<path style="fill:#F75959;" d="M426.09,119.99l3.79,16.56c-139.25,14.46-279.64,14.46-418.89,0l3.79-16.56
		C151.5,134.43,289.37,134.43,426.09,119.99z"/>
	<path style="fill:#B7ED62;" d="M264.15,297.03l2.02,23.85H174.7l2.02-23.85c0.73-8.61,0.39-17.05-0.91-25.19h89.25
		C263.76,279.98,263.42,288.42,264.15,297.03z"/>
	<path style="fill:#A1D14E;" d="M175.81,271.84c1.3,8.14,1.64,16.58,0.91,25.19l-2.02,23.85h-4.26
		c-18.75-27.18-40.93-51.63-65.9-72.8c-24.97-21.18-52.72-39.06-82.6-53.12L0.02,184.65h73.44
		C125.49,184.65,167.99,222.83,175.81,271.84z"/>
</g>
<g>
</g>
<g>
</g>
<g>
</g>
<g>
</g>
<g>
</g>
<g>
</g>
<g>
</g>
<g>
</g>
<g>
</g>
<g>
</g>
<g>
</g>
<g>
</g>
<g>
</g>
<g>
</g>
<g>
</g>
</svg>
