<?xml version="1.0" encoding="iso-8859-1"?>
<!-- Generator: Adobe Illustrator 19.0.0, SVG Export Plug-In . SVG Version: 6.00 Build 0)  -->
<svg version="1.1" id="Layer_1" xmlns="http://www.w3.org/2000/svg" xmlns:xlink="http://www.w3.org/1999/xlink" x="0px" y="0px"
	 viewBox="0 0 320 320" style="enable-background:new 0 0 320 320;" xml:space="preserve">
<g id="XMLID_1105_">
	<g id="XMLID_1106_">
		<g id="XMLID_1107_">
			<path id="XMLID_1108_" style="fill:#9DD7F5;" d="M141.619,141.619c0,0-55.142-45.952-55.142-91.903
				c0-45.952,73.523-64.333,119.475-36.762c24.65,14.791,27.571,45.952,0,64.333c-20.865,13.91-41.022,34.51-36.761,64.332H141.619z
				"/>
		</g>
		<g id="XMLID_1109_">
			<path id="XMLID_75_" style="fill:#9DD7F5;" d="M141.619,178.381c0,0-45.952,55.142-91.903,55.142
				c-45.952,0-64.332-73.522-36.762-119.475c14.791-24.65,45.952-27.57,64.332,0c13.911,20.865,34.511,41.022,64.333,36.762V178.381
				z"/>
		</g>
		<g id="XMLID_1110_">
			<path id="XMLID_73_" style="fill:#9DD7F5;" d="M178.381,178.381c0,0,55.142,45.951,55.142,91.903S160,334.617,114.048,307.046
				c-24.651-14.791-27.571-45.952,0-64.333c20.865-13.91,41.022-34.51,36.761-64.332L178.381,178.381L178.381,178.381z"/>
		</g>
		<g id="XMLID_1111_">
			<path id="XMLID_70_" style="fill:#9DD7F5;" d="M178.381,141.619c0,0,45.952-55.142,91.903-55.142
				c45.952,0,64.333,73.523,36.762,119.475c-14.791,24.65-45.952,27.57-64.333,0c-13.911-20.865-34.511-41.022-64.332-36.762
				L178.381,141.619L178.381,141.619z"/>
		</g>
	</g>
	<g id="XMLID_1112_">
		<g id="XMLID_1113_">
			<path id="XMLID_1114_" style="fill:#78B9EB;" d="M205.952,12.954C192.2,4.703,175.981,0.577,160,0.065V141.62h9.19
				c-4.261-29.822,15.896-50.422,36.761-64.332C233.523,58.906,230.602,27.745,205.952,12.954z"/>
		</g>
		<g id="XMLID_1115_">
			<path id="XMLID_1116_" style="fill:#78B9EB;" d="M178.381,178.381H160V319.94c37.419,1.201,73.523-17.455,73.523-49.655
				C233.523,224.332,178.381,178.381,178.381,178.381z"/>
		</g>
		<g id="XMLID_1117_">
			<path id="XMLID_63_" style="fill:#78B9EB;" d="M178.381,141.619c0,0,45.952-55.142,91.903-55.142
				c45.952,0,64.333,73.523,36.762,119.475c-14.791,24.65-45.952,27.57-64.333,0c-13.911-20.865-34.511-41.022-64.332-36.762
				L178.381,141.619L178.381,141.619z"/>
		</g>
	</g>
	<circle id="XMLID_1118_" style="fill:#006DF0;" cx="160" cy="160" r="50"/>
	<g id="XMLID_1119_">
		<path id="XMLID_1120_" style="fill:#003778;" d="M160,110c27.614,0,50,22.385,50,50s-22.386,50-50,50"/>
	</g>
	<circle id="XMLID_1121_" style="fill:#FFFFFF;" cx="160" cy="160" r="20"/>
</g>
<g>
</g>
<g>
</g>
<g>
</g>
<g>
</g>
<g>
</g>
<g>
</g>
<g>
</g>
<g>
</g>
<g>
</g>
<g>
</g>
<g>
</g>
<g>
</g>
<g>
</g>
<g>
</g>
<g>
</g>
</svg>
