<?xml version="1.0" encoding="iso-8859-1"?>
<!-- Generator: Adobe Illustrator 18.0.0, SVG Export Plug-In . SVG Version: 6.00 Build 0)  -->
<!DOCTYPE svg PUBLIC "-//W3C//DTD SVG 1.1//EN" "http://www.w3.org/Graphics/SVG/1.1/DTD/svg11.dtd">
<svg version="1.1" id="Capa_1" xmlns="http://www.w3.org/2000/svg" xmlns:xlink="http://www.w3.org/1999/xlink" x="0px" y="0px"
	 viewBox="0 0 440.35 440.35" style="enable-background:new 0 0 440.35 440.35;" xml:space="preserve">
<g>
	<circle style="fill:#999999;" cx="220.209" cy="25.311" r="13.157"/>
	<path style="fill:#FCE7A7;" d="M368.504,204.544v50.194c0,25.048-6.203,48.651-17.184,69.352
		c-24.887,46.979-74.272,78.986-131.143,78.986c-56.86,0-106.256-32.006-131.154-78.986c-10.96-20.701-17.184-44.304-17.184-69.352
		v-50.194c0-1.92,0.043-3.819,0.119-5.717c0.043-1.348,0.119-2.697,0.205-4.034c0.054-0.852,0.119-1.704,0.183-2.557
		c2.88-34.941,17.842-66.44,40.723-90.312c25.868-27.001,61.844-44.239,101.855-45.62c1.748-0.065,3.506-0.097,5.253-0.097
		c1.758,0,3.506,0.032,5.264,0.097c38.867,1.348,73.926,17.67,99.622,43.355c0.744,0.745,1.489,1.499,2.211,2.265
		c22.88,23.862,37.864,55.383,40.733,90.312c0.065,0.852,0.129,1.704,0.183,2.557c0.086,1.337,0.151,2.686,0.194,4.034
		C368.472,200.726,368.504,202.624,368.504,204.544z"/>
	<path style="fill:#E5CF98;" d="M220.175,319.236c28.047-4.315,90.691,48.184,75.229,1.438s-75.229-27.328-75.229-27.328
		s-59.767-19.417-75.229,27.328S192.127,314.921,220.175,319.236z"/>
	<g>
		<path style="fill:#FFFFFF;" d="M147.14,277.674c-16.475,0-29.879-13.404-29.879-29.879s13.404-29.879,29.879-29.879
			s29.879,13.404,29.879,29.879S163.615,277.674,147.14,277.674z"/>
		<path style="fill:#FFFFFF;" d="M293.213,277.674c-16.475,0-29.879-13.404-29.879-29.879s13.404-29.879,29.879-29.879
			c16.475,0,29.879,13.404,29.879,29.879S309.688,277.674,293.213,277.674z"/>
		<path style="fill:#8777B7;" d="M157.365,247.796c-5.647,0-10.225-4.578-10.225-10.225c0-3.529,1.788-6.64,4.507-8.477
			c-1.448-0.348-2.952-0.552-4.507-0.552c-10.634,0-19.255,8.621-19.255,19.255s8.621,19.255,19.255,19.255
			s19.255-8.621,19.255-19.255c0-1.555-0.204-3.059-0.552-4.507C164.005,246.008,160.894,247.796,157.365,247.796z"/>
		<path style="fill:#8777B7;" d="M303.438,247.796c-5.647,0-10.225-4.578-10.225-10.225c0-3.529,1.788-6.64,4.507-8.477
			c-1.448-0.348-2.952-0.552-4.507-0.552c-10.634,0-19.255,8.621-19.255,19.255s8.621,19.255,19.255,19.255
			c10.634,0,19.255-8.621,19.255-19.255c0-1.555-0.204-3.059-0.552-4.507C310.079,246.008,306.967,247.796,303.438,247.796z"/>
	</g>
	<path style="fill:none;stroke:#EA535E;stroke-width:6;stroke-linecap:round;stroke-miterlimit:10;" d="M195.528,298.598
		c3.339,10.426,13.118,17.986,24.642,17.986s21.304-7.561,24.642-17.986"/>
	<polygon style="fill:#E5CF98;" points="199.923,271.699 220.175,253.356 240.426,271.699 	"/>
	<path style="fill:#E5CF98;" d="M368.385,198.827c-1.521-2.783-2.427-4.337-2.427-4.337c0.755,0.119,1.499,0.227,2.233,0.302
		c-0.054-0.852-0.118-1.704-0.183-2.557c-2.87-34.93-17.853-66.451-40.733-90.312c-31.877-20.054-69.007-30.798-107.098-30.798
		c-24.423,0-48.457,4.423-70.971,12.88c-12.589,4.736-24.703,10.723-36.138,17.918c-22.88,23.872-37.842,55.372-40.723,90.312
		c-0.065,0.852-0.129,1.704-0.183,2.557c0.733-0.076,1.478-0.184,2.222-0.302c0,0-0.906,1.554-2.427,4.337
		c-0.076,1.899-0.119,3.797-0.119,5.717v50.194c0,25.048,6.224,48.651,17.184,69.352c24.897,46.979,74.293,78.986,131.154,78.986
		c56.871,0,106.256-32.006,131.143-78.986c10.982-20.701,17.184-44.304,17.184-69.352v-50.194
		C368.504,202.624,368.472,200.726,368.385,198.827z M295.409,327.866c0,0-25.609,58.252-75.232,25.89
		c-49.622,32.362-75.231-25.89-75.231-25.89c-59.331,12.945-29.126-105.717-29.126-105.717s13.84-52.61,63.732-48.554
		c6.116,0.507,12.114,1.909,17.907,3.938l22.718,7.939l22.708-7.939c5.793-2.028,11.801-3.431,17.907-3.938
		c49.892-4.056,63.743,48.554,63.743,48.554S354.739,340.811,295.409,327.866z"/>
	<path style="fill:#91643A;" d="M365.963,175.072c12.673,2.023,23.697-0.657,26.528-14.411
		c3.272-15.895-16.303-38.476-39.537-58.962c-36.648-32.313-83.92-49.991-132.779-49.991h0c-48.859,0-96.131,17.678-132.779,49.991
		c-23.234,20.486-42.81,43.067-39.537,58.962c2.832,13.754,13.855,16.434,26.528,14.411c0,0-47.024,80.518-27.607,113.959
		c8.806,15.166,21.383,15.91,32.501,12.195c0,0-8.229,113.479,64.047,112.939c0,0,14.82,37.037,76.847,23.013
		c62.028,14.024,76.847-23.013,76.847-23.013c72.276,0.539,64.047-112.939,64.047-112.939c11.117,3.716,23.695,2.971,32.501-12.195
		C412.987,255.59,365.963,175.072,365.963,175.072z M295.404,308.449c0,0-25.607,58.252-75.229,25.89
		c-49.622,32.362-75.229-25.89-75.229-25.89c-59.331,12.945-29.126-105.717-29.126-105.717s13.845-52.611,63.733-48.55
		c6.113,0.498,12.118,1.905,17.908,3.93l22.714,7.943l22.714-7.943c5.79-2.025,11.795-3.432,17.908-3.93
		c49.888-4.061,63.733,48.55,63.733,48.55S354.735,321.394,295.404,308.449z"/>
	<path style="fill:#91643A;" d="M220.175,307.01c28.047-4.315,90.691,48.184,75.229,1.438s-75.229-27.328-75.229-27.328
		s-59.767-19.417-75.229,27.328S192.127,302.696,220.175,307.01z"/>
	<g>
		<path style="fill:#F9E575;" d="M163.343,52.702c0,0-59.419,7.867-61.891-52.702c0,0-27.755,78.193,51.635,90.394l42.308-33.534
			L163.343,52.702z"/>
		<path style="fill:#F9E575;" d="M277.086,52.702c0,0,59.419,7.867,61.891-52.702c0,0,27.755,78.193-51.635,90.394L245.035,56.86
			L277.086,52.702z"/>
	</g>
	<path style="fill:#EA535E;" d="M295.57,100.392c-22.88-10.712-48.414-16.709-75.361-16.709c-26.936,0-52.47,5.998-75.35,16.709
		c0.032-7.821,1.252-15.361,3.484-22.438c9.644-30.518,38.166-52.643,71.866-52.643s62.233,22.125,71.877,52.643
		C294.319,85.031,295.538,92.571,295.57,100.392z"/>
	<path style="fill:#B3B3B3;" d="M292.086,77.954c-21.974-9.73-46.289-15.135-71.877-15.135c-25.577,0-49.881,5.405-71.866,15.135
		c9.644-30.518,38.166-52.643,71.866-52.643S282.442,47.436,292.086,77.954z"/>
	<g>
		<path style="fill:#91643A;" d="M171.127,217.099l-32.843-9.093c-3.371-0.933-5.347-4.423-4.414-7.794l0.266-0.961
			c0.933-3.371,4.423-5.347,7.794-4.414l32.843,9.093c3.371,0.933,5.347,4.423,4.414,7.794l-0.266,0.961
			C177.987,216.057,174.498,218.033,171.127,217.099z"/>
		<path style="fill:#91643A;" d="M269.221,217.099l32.843-9.093c3.371-0.933,5.347-4.423,4.414-7.794l-0.266-0.961
			c-0.933-3.371-4.423-5.347-7.794-4.414l-32.843,9.093c-3.371,0.933-5.347,4.423-4.414,7.794l0.266,0.961
			C262.361,216.057,265.85,218.033,269.221,217.099z"/>
	</g>
</g>
<g>
</g>
<g>
</g>
<g>
</g>
<g>
</g>
<g>
</g>
<g>
</g>
<g>
</g>
<g>
</g>
<g>
</g>
<g>
</g>
<g>
</g>
<g>
</g>
<g>
</g>
<g>
</g>
<g>
</g>
</svg>
